<svg xmlns="http://www.w3.org/2000/svg" width="533" height="113" viewBox="0 0 533 113"><defs><style>.a{fill:#707070;font-size:16px;font-family:FrutigerLTStd-Roman, Frutiger LT Std;}.b{fill:none;stroke:#707070;}.c{fill:#e33a3a;font-size:44px;font-family:FrutigerLTStd-ExtraBlackCn, Frutiger LT Std;font-weight:900;}.d{fill:#212528;}.d,.e{font-size:42px;font-family:Futura-Medium, Futura;font-weight:500;}.e{fill:#cecece;letter-spacing:0.28em;}</style></defs><g transform="translate(-2698 -1146)"><text class="a" transform="translate(3122 1235)"><tspan x="0" y="12">ID Recarga</tspan></text><text class="a" transform="translate(2699 1235)"><tspan x="0" y="12">Tu número registrado a 10 dígitos.</tspan></text><g transform="translate(1849 125)"><line class="b" x2="362" transform="translate(849.5 1098.5)"/><line class="b" y2="23" transform="translate(849.5 1075.5)"/><line class="b" y2="23" transform="translate(1211.5 1075.5)"/></g><line class="b" x2="19" transform="translate(3130.5 1195.5)"/><g transform="translate(1849 125)"><g transform="translate(418.614)"><line class="b" x2="113.386" transform="translate(849.5 1098.5)"/><line class="b" y2="23" transform="translate(849.5 1075.5)"/><line class="b" y2="23" transform="translate(962.886 1075.5)"/></g><text class="c" transform="translate(1240 1081)"><tspan x="-13.2" y="0">+</tspan></text><text class="d" transform="translate(1325 1065)"><tspan x="-50.244" y="0">0051</tspan></text><line class="b" x2="19" transform="translate(1304.5 1070.5)"/><line class="b" x2="19" transform="translate(1327.5 1070.5)"/><line class="b" x2="19" transform="translate(1349.5 1070.5)"/></g><g transform="translate(1849 125)"><line class="b" x2="19" transform="translate(857.5 1070.5)"/><line class="b" x2="19" transform="translate(1001.5 1070.5)"/><line class="b" x2="19" transform="translate(893.5 1070.5)"/><line class="b" x2="19" transform="translate(1038.5 1070.5)"/><line class="b" x2="19" transform="translate(929.5 1070.5)"/><line class="b" x2="19" transform="translate(1074.5 1070.5)"/><line class="b" x2="19" transform="translate(1146.5 1070.5)"/><line class="b" x2="19" transform="translate(965.5 1070.5)"/><line class="b" x2="19" transform="translate(1110.5 1070.5)"/><line class="b" x2="19" transform="translate(1182.5 1070.5)"/></g><text class="e" transform="translate(2882 1192)"><tspan x="-177.741" y="0">5512345678</tspan></text></g></svg>