<svg xmlns="http://www.w3.org/2000/svg" width="533" height="108" viewBox="0 0 533 108"><defs><style>.a{fill:#707070;font-size:16px;font-family:FrutigerLTStd-Roman, Frutiger LT Std;}.b{fill:none;stroke:#707070;}.c{fill:#e33a3a;font-size:44px;font-family:FrutigerLTStd-ExtraBlackCn, Frutiger LT Std;font-weight:900;}.d{fill:#212528;}.d,.e{font-size:42px;font-family:Futura-Medium, Futura;font-weight:500;}.e{fill:#cecece;letter-spacing:0.28em;}.f{letter-spacing:0.267em;}</style></defs><g transform="translate(-2698 -1291)"><text class="a" transform="translate(3122 1375)"><tspan x="0" y="12">ID Recarga</tspan></text><text class="a" transform="translate(2699 1374)"><tspan x="0" y="12">Tu número registrado a 10 dígitos.</tspan></text><g transform="translate(1849 270)"><line class="b" x2="362" transform="translate(849.5 1098.5)"/><line class="b" y2="23" transform="translate(849.5 1075.5)"/><line class="b" y2="23" transform="translate(1211.5 1075.5)"/></g><g transform="translate(1849 125)"><g transform="translate(418.614 145)"><line class="b" x2="113.386" transform="translate(849.5 1098.5)"/><line class="b" y2="23" transform="translate(849.5 1075.5)"/><line class="b" y2="23" transform="translate(962.886 1075.5)"/></g><text class="c" transform="translate(1240 1226)"><tspan x="-13.2" y="0">+</tspan></text><text class="d" transform="translate(1325 1210)"><tspan x="-51.844" y="0">0052</tspan></text><line class="b" x2="19" transform="translate(1281.5 1215.5)"/><line class="b" x2="19" transform="translate(1304.5 1215.5)"/><line class="b" x2="19" transform="translate(1327.5 1215.5)"/><line class="b" x2="19" transform="translate(1349.5 1215.5)"/></g><g transform="translate(1849 275)"><line class="b" x2="19" transform="translate(857.5 1070.5)"/><line class="b" x2="19" transform="translate(1001.5 1070.5)"/><line class="b" x2="19" transform="translate(893.5 1070.5)"/><line class="b" x2="19" transform="translate(1038.5 1070.5)"/><line class="b" x2="19" transform="translate(929.5 1070.5)"/><line class="b" x2="19" transform="translate(1074.5 1070.5)"/><line class="b" x2="19" transform="translate(1146.5 1070.5)"/><line class="b" x2="19" transform="translate(965.5 1070.5)"/><line class="b" x2="19" transform="translate(1110.5 1070.5)"/><line class="b" x2="19" transform="translate(1182.5 1070.5)"/></g><text class="e" transform="translate(2880 1340)"><tspan x="-177.741" y="0">551234567</tspan><tspan class="f" y="0">8</tspan></text></g></svg>