<svg xmlns="http://www.w3.org/2000/svg" width="70.586" height="74.313" viewBox="0 0 70.586 74.313"><defs><style>.a{fill:none;stroke:#fff;stroke-linecap:round;stroke-linejoin:round;stroke-width:3.5px;}</style></defs><g transform="translate(-102.25 -373.25)"><path class="a" d="M145.893,392.454H123.365A7.454,7.454,0,0,1,115.911,385h0" transform="translate(10.285 8.635)"/><path class="a" d="M115.184,406.553A18.563,18.563,0,0,0,127.72,411.4h0a18.576,18.576,0,0,0,12.892-5.179" transform="translate(9.657 26.959)"/><path class="a" d="M134.826,397.3a11.844,11.844,0,0,1-8.66,3.772h0a11.85,11.85,0,0,1-8.991-4.143" transform="translate(11.377 18.933)"/><path class="a" d="M126.362,402v3.943a5.374,5.374,0,0,1-5.374,5.374h-5.807A11.18,11.18,0,0,0,104,422.5" transform="translate(0 23.314)"/><path class="a" d="M150.362,422.5a11.18,11.18,0,0,0-11.181-11.181h-5.807A5.374,5.374,0,0,1,128,405.943V402" transform="translate(20.724 23.314)"/><path class="a" d="M109,414.133V399.225A24.225,24.225,0,0,1,133.225,375h0a24.225,24.225,0,0,1,24.225,24.225v14.908" transform="translate(4.317 0)"/><path class="a" d="M149.27,406.952a18.635,18.635,0,0,1-18.635,18.635h0A18.635,18.635,0,0,1,112,406.952v-9.317A18.635,18.635,0,0,1,130.635,379h0a18.635,18.635,0,0,1,18.635,18.635Z" transform="translate(6.908 3.454)"/><path class="a" d="M135,402.044h.932a6.522,6.522,0,0,0,6.522-6.522h0A6.522,6.522,0,0,0,135.932,389H135" transform="translate(26.768 12.089)"/></g></svg>