<svg xmlns="http://www.w3.org/2000/svg" width="65.155" height="66.168" viewBox="0 0 65.155 66.168"><defs><style>.a{fill:#fff;}</style></defs><path class="a" d="M287.084,89.846a2.632,2.632,0,0,1-3.16,3.16,2.605,2.605,0,0,1-1.958-1.958,2.632,2.632,0,0,1,3.16-3.16A2.6,2.6,0,0,1,287.084,89.846Zm-37.742-2.02a2.626,2.626,0,0,1-2.625-2.626V52.841L268.509,32.96,290.3,52.841v9.472a26.875,26.875,0,0,1,5.251,1.731V57.632l1.119,1.02a2.625,2.625,0,0,0,3.709-.17h0a2.625,2.625,0,0,0-.17-3.709l-29.7-27.091a2.976,2.976,0,0,0-4.012,0l-29.7,27.091a2.625,2.625,0,0,0-.17,3.709h0a2.625,2.625,0,0,0,3.709.17l1.119-1.02V85.2a7.872,7.872,0,0,0,7.872,7.872h27.409L271.5,87.826Zm35.183-10.9a13.184,13.184,0,0,0-8.959,3.826h0a2.625,2.625,0,0,0,0,3.713h0a2.625,2.625,0,0,0,3.713,0h0a8.179,8.179,0,0,1,5.379-2.29,7.844,7.844,0,0,1,5.221,2.29h0a2.626,2.626,0,0,0,3.713,0h0a2.626,2.626,0,0,0,0-3.713h0a13.478,13.478,0,0,0-9.064-3.826Zm15.817-3.259a21.777,21.777,0,0,0-31.463,0h0a2.626,2.626,0,0,0,.011,3.713h0a2.626,2.626,0,0,0,3.713-.01h0a16.531,16.531,0,0,1,24.016,0h0a2.626,2.626,0,0,0,3.713.01h0a2.625,2.625,0,0,0,.01-3.713Z" transform="translate(-235.951 -26.905)"/></svg>