<svg xmlns="http://www.w3.org/2000/svg" width="97.287" height="73.943" viewBox="0 0 97.287 73.943"><defs><style>.a{fill:#512f84;}</style></defs><g transform="translate(18.03 54.034)"><path class="a" d="M64.846,219.371h-4.09v2.82H64.7v1.665H60.756v5.586h-1.77V217.707h5.86Z" transform="translate(-58.986 -217.707)"/><path class="a" d="M66.943,222.33h1.71v.661a3.288,3.288,0,0,1,.836-.676,1.917,1.917,0,0,1,.882-.19,2.767,2.767,0,0,1,1.414.44L71,224.132a1.633,1.633,0,0,0-.95-.35q-1.4,0-1.4,2.113v3.839h-1.71Z" transform="translate(-59.51 -217.998)"/><path class="a" d="M79.779,226.434H74.474a2.244,2.244,0,0,0,.592,1.452,1.809,1.809,0,0,0,1.345.532,1.749,1.749,0,0,0,1.057-.3,4.315,4.315,0,0,0,.935-1.125l1.444.805a5.739,5.739,0,0,1-.707.977,3.76,3.76,0,0,1-.8.669,3.209,3.209,0,0,1-.92.384,4.462,4.462,0,0,1-1.071.121,3.487,3.487,0,0,1-2.661-1.064,3.991,3.991,0,0,1-1-2.843,4.1,4.1,0,0,1,.973-2.843,3.709,3.709,0,0,1,5.184-.031,4.1,4.1,0,0,1,.943,2.866Zm-1.756-1.4a1.639,1.639,0,0,0-1.725-1.369,1.765,1.765,0,0,0-.585.1,1.66,1.66,0,0,0-.5.274,1.724,1.724,0,0,0-.384.429,1.989,1.989,0,0,0-.243.571Z" transform="translate(-59.888 -217.998)"/><path class="a" d="M89,226.434H83.692a2.25,2.25,0,0,0,.593,1.452,1.809,1.809,0,0,0,1.345.532,1.749,1.749,0,0,0,1.057-.3,4.334,4.334,0,0,0,.935-1.125l1.444.805a5.74,5.74,0,0,1-.707.977,3.764,3.764,0,0,1-.8.669,3.193,3.193,0,0,1-.919.384,4.462,4.462,0,0,1-1.071.121,3.486,3.486,0,0,1-2.661-1.064,3.991,3.991,0,0,1-1-2.843,4.1,4.1,0,0,1,.973-2.843,3.709,3.709,0,0,1,5.184-.031A4.1,4.1,0,0,1,89,226.032Zm-1.756-1.4a1.639,1.639,0,0,0-1.725-1.369,1.771,1.771,0,0,0-.586.1,1.671,1.671,0,0,0-.5.274,1.72,1.72,0,0,0-.383.429,1.99,1.99,0,0,0-.244.571Z" transform="translate(-60.495 -217.998)"/><path class="a" d="M99.03,228.136h4.4v1.611h-7.79l4.8-5.807H96.659v-1.6h7.16Z" transform="translate(-65.85 -218.012)"/><path class="a" d="M105.323,225.978a3.677,3.677,0,0,1,1.147-2.729,4.05,4.05,0,0,1,5.61.007,3.965,3.965,0,0,1-.007,5.571,3.926,3.926,0,0,1-2.835,1.117,3.761,3.761,0,0,1-2.789-1.141A3.831,3.831,0,0,1,105.323,225.978Zm1.748.03a2.5,2.5,0,0,0,.593,1.756,2.3,2.3,0,0,0,3.207.007,2.778,2.778,0,0,0,0-3.451,2.275,2.275,0,0,0-3.192,0A2.377,2.377,0,0,0,107.071,226.008Z" transform="translate(-66.487 -217.998)"/><path class="a" d="M115.713,222.33h1.718v.685a2.8,2.8,0,0,1,2.022-.889,2.554,2.554,0,0,1,2.014.813,3.33,3.33,0,0,1,.624,2.258v4.537h-1.718V225.6a2.709,2.709,0,0,0-.3-1.512,1.226,1.226,0,0,0-1.079-.426,1.321,1.321,0,0,0-1.209.562,3.877,3.877,0,0,0-.349,1.938v3.572h-1.718Z" transform="translate(-67.171 -217.998)"/><path class="a" d="M131.567,226.434h-5.305a2.249,2.249,0,0,0,.592,1.452,1.812,1.812,0,0,0,1.346.532,1.753,1.753,0,0,0,1.057-.3,4.334,4.334,0,0,0,.935-1.125l1.444.805a5.791,5.791,0,0,1-.707.977,3.765,3.765,0,0,1-.8.669,3.2,3.2,0,0,1-.919.384,4.47,4.47,0,0,1-1.072.121,3.485,3.485,0,0,1-2.66-1.064,3.991,3.991,0,0,1-1-2.843,4.1,4.1,0,0,1,.973-2.843,3.708,3.708,0,0,1,5.183-.031,4.1,4.1,0,0,1,.943,2.866Zm-1.756-1.4a1.637,1.637,0,0,0-1.725-1.369,1.771,1.771,0,0,0-.586.1,1.671,1.671,0,0,0-.5.274,1.742,1.742,0,0,0-.384.429,2.015,2.015,0,0,0-.243.571Z" transform="translate(-67.748 -217.998)"/></g><g transform="translate(0 45.568)"><g transform="translate(0 0)"><path class="a" d="M129.216,201.587H52.2a10.148,10.148,0,0,0-10.134,10.134v8.108A10.148,10.148,0,0,0,52.2,229.962h77.019a10.145,10.145,0,0,0,10.134-10.134v-8.108A10.148,10.148,0,0,0,129.216,201.587Zm6.08,18.242a6.087,6.087,0,0,1-6.08,6.08H52.2a6.088,6.088,0,0,1-6.081-6.08v-8.108a6.088,6.088,0,0,1,6.081-6.08h77.019a6.087,6.087,0,0,1,6.081,6.08v8.108Z" transform="translate(-42.063 -201.587)"/></g></g><g transform="translate(68.912 17.193)"><path class="a" d="M151.005,157.564a2.027,2.027,0,0,0-2.027,2.026v28.375a2.027,2.027,0,1,0,4.054,0V159.59A2.027,2.027,0,0,0,151.005,157.564Z" transform="translate(-148.978 -157.564)"/></g><g transform="translate(60.804 11.46)"><g transform="translate(0 0)"><path class="a" d="M140.454,156.429a6.05,6.05,0,0,1,1.78-4.3,2.026,2.026,0,1,0-2.866-2.866,10.138,10.138,0,0,0,0,14.333,2.035,2.035,0,0,0,1.435.592,2,2,0,0,0,1.431-.592,2.027,2.027,0,0,0,0-2.866A6.05,6.05,0,0,1,140.454,156.429Z" transform="translate(-136.4 -148.669)"/></g></g><g transform="translate(74.642 11.46)"><g transform="translate(0 0)"><path class="a" d="M161.332,149.262a2.026,2.026,0,1,0-2.866,2.866,6.082,6.082,0,0,1,0,8.6,2.028,2.028,0,0,0,2.87,2.866,10.139,10.139,0,0,0,0-14.334Z" transform="translate(-157.87 -148.669)"/></g></g><g transform="translate(52.703 5.732)"><path class="a" d="M132.03,143.241a2.027,2.027,0,0,0-2.866-2.866,18.265,18.265,0,0,0,0,25.8,2.026,2.026,0,0,0,2.866-2.866A14.21,14.21,0,0,1,132.03,143.241Z" transform="translate(-123.831 -139.783)"/></g><g transform="translate(80.378 5.732)"><path class="a" d="M170.228,140.375a2.027,2.027,0,0,0-2.866,2.866,14.21,14.21,0,0,1,0,20.065,2.027,2.027,0,0,0,2.866,2.866A18.267,18.267,0,0,0,170.228,140.375Z" transform="translate(-166.769 -139.783)"/></g><g transform="translate(44.6)"><path class="a" d="M121.829,134.348a2.027,2.027,0,1,0-2.866-2.866,26.379,26.379,0,0,0,0,37.261,2.026,2.026,0,0,0,2.866-2.866A22.316,22.316,0,0,1,121.829,134.348Z" transform="translate(-111.259 -130.889)"/></g><g transform="translate(86.11 0)"><g transform="translate(0 0)"><path class="a" d="M179.12,131.483a2.027,2.027,0,0,0-2.866,2.866,22.314,22.314,0,0,1,0,31.529,2.027,2.027,0,0,0,2.866,2.866A26.379,26.379,0,0,0,179.12,131.483Z" transform="translate(-175.662 -130.89)"/></g></g></svg>