<svg xmlns="http://www.w3.org/2000/svg" width="91.959" height="68.51" viewBox="0 0 91.959 68.51"><defs><style>.a,.b{fill:#fff;stroke:#512f84;}.a{stroke-width:4px;}</style></defs><g transform="translate(2.002 2.018)"><path class="a" d="M-56.413,775.072l5.049-11.371a66.005,66.005,0,0,0-53.312,13.817,6.007,6.007,0,0,0-.465,8.9h0a6.009,6.009,0,0,0,8.059.385A53.985,53.985,0,0,1-56.413,775.072Z" transform="translate(106.895 -762.683)"/><path class="a" d="M-48.336,805.387a42.064,42.064,0,0,0-25.785,7.772,5.879,5.879,0,0,0-.754,8.943l.179.179a5.9,5.9,0,0,0,7.6.6,29.747,29.747,0,0,1,13.3-5.25Z" transform="translate(93.642 -781.352)"/><path class="b" d="M-18.843,766.792a2.088,2.088,0,0,0-1.74.976h0l-.276.615-22,49.45h0a8.7,8.7,0,0,0-.16,8.12,7.059,7.059,0,0,0,3.272,3.421c5.824,2.9,11.522-.529,12.628-5.665l.021-.148,10.374-54.647h0A2.127,2.127,0,0,0-18.843,766.792Z" transform="translate(79.36 -764.48)"/><path class="a" d="M-.239,825.256q.83.525,1.631,1.1a5.47,5.47,0,0,0,7.086-.528l.794-.794a5.436,5.436,0,0,0-.608-8.226,43.41,43.41,0,0,0-6.548-3.944Z" transform="translate(60.247 -784.632)"/><path class="a" d="M10.327,770.034,8.06,781.967a.013.013,0,0,0,.008.015,53.8,53.8,0,0,1,13.447,8.044,5.985,5.985,0,0,0,8.032-.368l.046-.047a5.97,5.97,0,0,0-.463-8.852A66.019,66.019,0,0,0,10.327,770.034Z" transform="translate(56.617 -765.898)"/></g></svg>