<svg xmlns="http://www.w3.org/2000/svg" width="82.068" height="73.41" viewBox="0 0 82.068 73.41"><defs><style>.a{fill:#512f84;}</style></defs><path class="a" d="M236.109,168.5a14.105,14.105,0,1,0,14.105,14.106A14.121,14.121,0,0,0,236.109,168.5Zm0,25.005a10.9,10.9,0,1,1,10.9-10.9A10.912,10.912,0,0,1,236.109,193.505Zm0,0" transform="translate(-186.419 -141.571)"/><path class="a" d="M301.607,211.5a1.6,1.6,0,0,0,0,3.206,4.012,4.012,0,0,1,4.007,4.007,1.6,1.6,0,1,0,3.206,0A7.22,7.22,0,0,0,301.607,211.5Zm0,0" transform="translate(-251.916 -177.682)"/><path class="a" d="M45.788,71.363a1.6,1.6,0,1,0-2.847,1.474l4.315,8.335a1.6,1.6,0,0,0,2.868-.043l2.612-5.439,2.837,5.482A1.6,1.6,0,0,0,57,82.038h.024a1.6,1.6,0,0,0,1.421-.909l4-8.335a1.6,1.6,0,1,0-2.89-1.388l-2.612,5.439-2.838-5.482a1.6,1.6,0,0,0-2.868.043l-2.612,5.439Zm0,0" transform="translate(-35.907 -59.277)"/><path class="a" d="M117.591,3.706A1.6,1.6,0,0,0,118.724.97a1.6,1.6,0,1,0-2.266,2.267A1.614,1.614,0,0,0,117.591,3.706Zm0,0" transform="translate(-97.397 -0.5)"/><path class="a" d="M82.068,28.07V6.912A6.419,6.419,0,0,0,75.657.5H26.927a1.6,1.6,0,1,0,0,3.206h48.73a3.21,3.21,0,0,1,3.206,3.206V28.07a3.21,3.21,0,0,1-3.206,3.206H67.963c-.046,0-.091,0-.137.007a20.949,20.949,0,0,0-11.267-9.421l2.376-4.947L61.773,22.4a1.6,1.6,0,0,0,1.423.866h.024a1.6,1.6,0,0,0,1.421-.909l4-8.335a1.6,1.6,0,0,0-2.89-1.388l-2.612,5.439-2.838-5.482a1.6,1.6,0,0,0-2.868.043l-2.612,5.439-2.837-5.482A1.6,1.6,0,0,0,49.14,14.06l3.548,6.853A20.87,20.87,0,0,0,44,21.485l3.587-7.468a1.6,1.6,0,0,0-2.89-1.388L42.09,18.068l-2.838-5.482a1.6,1.6,0,0,0-2.868.043l-2.612,5.439-2.838-5.482a1.6,1.6,0,0,0-2.847,1.474L32.4,22.4a1.6,1.6,0,0,0,2.868-.043l2.612-5.438L40.72,22.4a1.565,1.565,0,0,0,.169.255,20.977,20.977,0,0,0-9.33,8.626H6.412A3.21,3.21,0,0,1,3.206,28.07V6.912A3.21,3.21,0,0,1,6.412,3.706h6.571a1.6,1.6,0,1,0,0-3.206H6.412A6.419,6.419,0,0,0,0,6.912V28.07a6.419,6.419,0,0,0,6.412,6.412H30.082A20.833,20.833,0,0,0,60.068,59.6L72.79,72.321a5.435,5.435,0,1,0,7.686-7.687l-5-5A1.6,1.6,0,1,0,73.211,61.9l5,5a2.229,2.229,0,1,1-3.153,3.153l-12.3-12.3A20.818,20.818,0,0,0,69.3,34.481h6.358A6.419,6.419,0,0,0,82.068,28.07ZM49.69,59.166A17.632,17.632,0,1,1,67.322,41.534,17.652,17.652,0,0,1,49.69,59.166Zm0,0" transform="translate(0 -0.5)"/><path class="a" d="M430.559,343.251a1.6,1.6,0,1,0,1.133-.47A1.615,1.615,0,0,0,430.559,343.251Zm0,0" transform="translate(-361.151 -287.917)"/></svg>