<svg xmlns="http://www.w3.org/2000/svg" width="81" height="81" viewBox="0 0 81 81"><defs><style>.a{fill:#fff;}.b,.d{fill:none;}.b{stroke:#fff;stroke-width:6px;}.c{stroke:none;}</style></defs><g transform="translate(-782 -2341)"><g transform="translate(796 2300.335)"><g transform="translate(22.181 92.236)"><path class="a" d="M214.17,358.88a4.638,4.638,0,1,0,4.655,4.637A4.651,4.651,0,0,0,214.17,358.88Z" transform="translate(-209.516 -358.88)"/></g><g transform="translate(14.589 81.221)"><g transform="translate(0 0)"><path class="a" d="M161.408,259.53a16.077,16.077,0,0,0-22.681-.03,3.132,3.132,0,0,0,4.432,4.427,9.787,9.787,0,0,1,13.807.017,3.132,3.132,0,0,0,4.443-4.415Z" transform="translate(-137.807 -254.833)"/></g></g><g transform="translate(0 60.665)"><g transform="translate(0 0)"><path class="a" d="M52.776,71.38A36.762,36.762,0,0,0,.918,71.354a3.132,3.132,0,0,0,4.435,4.422,30.469,30.469,0,0,1,42.984.022,3.132,3.132,0,1,0,4.439-4.419Z" transform="translate(0 -60.665)"/></g></g><g transform="translate(7.477 71.202)"><g transform="translate(0 0)"><path class="a" d="M108.449,167.828a26.157,26.157,0,0,0-36.9-.026,3.132,3.132,0,0,0,4.434,4.424,19.865,19.865,0,0,1,28.026.02,3.132,3.132,0,1,0,4.44-4.418Z" transform="translate(-70.628 -160.2)"/></g></g></g><g transform="translate(514 -1986)"><g class="b" transform="translate(268 4327)"><circle class="c" cx="40.5" cy="40.5" r="40.5"/><circle class="d" cx="40.5" cy="40.5" r="37.5"/></g><path class="b" d="M0,0,40.846,38.769,55.62,52.792" transform="translate(279.592 4342.482)"/></g></g></svg>