<svg xmlns="http://www.w3.org/2000/svg" xmlns:xlink="http://www.w3.org/1999/xlink" width="99" height="99" viewBox="0 0 99 99"><defs><style>.a{fill:#fff;}.b{fill:#512f84;}.c{filter:url(#a);}</style><filter id="a" x="0" y="0" width="99" height="99" filterUnits="userSpaceOnUse"><feOffset dy="3" input="SourceAlpha"/><feGaussianBlur stdDeviation="3" result="b"/><feFlood flood-opacity="0.161"/><feComposite operator="in" in2="b"/><feComposite in="SourceGraphic"/></filter></defs><g transform="translate(-1269 -2395)"><g class="c" transform="matrix(1, 0, 0, 1, 1269, 2395)"><rect class="a" width="81" height="81" rx="9" transform="translate(9 6)"/></g><g transform="translate(1293 2424)"><g transform="translate(0 0)"><path class="b" d="M323.981,212.249a12.35,12.35,0,1,1-8.761-3.649A11.947,11.947,0,0,1,323.981,212.249Zm-14.019,3.5a7.4,7.4,0,1,0,5.258-2.194A7.2,7.2,0,0,0,309.962,215.752Z" transform="translate(-302.81 -208.583)"/><path class="b" d="M419.016,215.182v-6.655l14.909,13.584V209h4.981v24.377Z" transform="translate(-392.651 -208.527)"/><circle class="b" cx="3.035" cy="3.035" r="3.035" transform="translate(25.972 18.791)"/><g transform="translate(49.04 23.856)"><path class="b" d="M519.46,313.673a.515.515,0,0,1,.247.065.461.461,0,0,1,.188.186.506.506,0,0,1,0,.5.468.468,0,0,1-.186.186.506.506,0,0,1-.5,0,.471.471,0,0,1-.186-.186.5.5,0,0,1,0-.5.465.465,0,0,1,.188-.186A.516.516,0,0,1,519.46,313.673Zm0,.083a.428.428,0,0,0-.206.054.388.388,0,0,0-.157.155.417.417,0,0,0,0,.418.4.4,0,0,0,.156.155.42.42,0,0,0,.417,0,.4.4,0,0,0,.155-.155.421.421,0,0,0,0-.418.386.386,0,0,0-.157-.155A.429.429,0,0,0,519.46,313.756Zm-.194.685V313.9h.186a.457.457,0,0,1,.138.015.133.133,0,0,1,.068.052.138.138,0,0,1,.025.079.143.143,0,0,1-.042.1.166.166,0,0,1-.112.049.15.15,0,0,1,.046.029.622.622,0,0,1,.08.107l.066.106h-.107l-.048-.085a.442.442,0,0,0-.092-.126.112.112,0,0,0-.07-.019h-.051v.23Zm.087-.3h.106a.169.169,0,0,0,.1-.023.078.078,0,0,0,.014-.1.079.079,0,0,0-.037-.028.271.271,0,0,0-.088-.01h-.1Z" transform="translate(-518.957 -313.673)"/></g></g><g transform="translate(2.608 29.633)"><path class="b" d="M314.307,339.138h.411v5.537h-.411Z" transform="translate(-314.307 -339.138)"/><path class="b" d="M327.417,339.138h.388l3.82,4.817v-4.817h.4v5.537h-.309l-3.9-4.92v4.92h-.4Z" transform="translate(-324.443 -339.138)"/><path class="b" d="M357.906,339.518h-1.93v-.38h4.271v.38h-1.93v5.157h-.411Z" transform="translate(-346.522 -339.138)"/><path class="b" d="M383.067,339.138h3.939v.38h-3.528v2.175h3.172v.38h-3.172V344.3h3.568v.38h-3.979Z" transform="translate(-367.466 -339.138)"/><path class="b" d="M410.23,339.138h2.326a2.181,2.181,0,0,1,1.558.546,1.459,1.459,0,0,1,.419,1.028v.016c0,.926-.688,1.456-1.622,1.582l1.827,2.365h-.522l-1.764-2.294h-1.811v2.294h-.411Zm2.278,2.871c.925,0,1.614-.467,1.614-1.266v-.016c0-.743-.585-1.21-1.59-1.21h-1.89v2.492Z" transform="translate(-388.467 -339.138)"/><path class="b" d="M439.242,339.138h.387l3.821,4.817v-4.817h.4v5.537h-.308l-3.9-4.92v4.92h-.4Z" transform="translate(-410.896 -339.138)"/><path class="b" d="M470.588,339.138h3.939v.38H471v2.175h3.172v.38H471V344.3h3.568v.38h-3.979Z" transform="translate(-435.131 -339.138)"/><path class="b" d="M497.59,339.518h-1.93v-.38h4.271v.38H498v5.157h-.411Z" transform="translate(-454.514 -339.138)"/></g></g></g></svg>