<svg xmlns="http://www.w3.org/2000/svg" width="81" height="81" viewBox="0 0 81 81"><defs><style>.a{fill:#fff;}.b,.d{fill:none;}.b{stroke:#fff;stroke-width:3px;}.c{stroke:none;}</style></defs><g transform="translate(-946 -2401)"><g transform="translate(963.441 2419.526)"><path class="a" d="M350.683,373.8h-2.789c-.772,0-1.394.464-1.394,1.038s.623,1.038,1.394,1.038h2.789c.772,0,1.394-.463,1.394-1.038S351.455,373.8,350.683,373.8Z" transform="translate(-315.683 -345.394)"/><path class="a" d="M350.683,373.8h-2.789c-.772,0-1.394.464-1.394,1.038s.623,1.038,1.394,1.038h2.789c.772,0,1.394-.463,1.394-1.038S351.455,373.8,350.683,373.8Z" transform="translate(-326.888 -345.394)"/><path class="a" d="M350.683,373.8h-2.789c-.772,0-1.394.464-1.394,1.038s.623,1.038,1.394,1.038h2.789c.772,0,1.394-.463,1.394-1.038S351.455,373.8,350.683,373.8Z" transform="translate(-338.093 -345.394)"/><path class="a" d="M350.683,373.8h-2.789c-.772,0-1.394.464-1.394,1.038s.623,1.038,1.394,1.038h2.789c.772,0,1.394-.463,1.394-1.038S351.455,373.8,350.683,373.8Z" transform="translate(-326.888 -339.791)"/><path class="a" d="M350.683,373.8h-2.789c-.772,0-1.394.464-1.394,1.038s.623,1.038,1.394,1.038h2.789c.772,0,1.394-.463,1.394-1.038S351.455,373.8,350.683,373.8Z" transform="translate(-338.093 -339.791)"/><path class="a" d="M350.683,373.8h-2.789c-.772,0-1.394.464-1.394,1.038s.623,1.038,1.394,1.038h2.789c.772,0,1.394-.463,1.394-1.038S351.455,373.8,350.683,373.8Z" transform="translate(-315.683 -350.996)"/><path class="a" d="M350.683,373.8h-2.789c-.772,0-1.394.464-1.394,1.038s.623,1.038,1.394,1.038h2.789c.772,0,1.394-.463,1.394-1.038S351.455,373.8,350.683,373.8Z" transform="translate(-326.888 -350.996)"/><path class="a" d="M350.683,373.8h-2.789c-.772,0-1.394.464-1.394,1.038s.623,1.038,1.394,1.038h2.789c.772,0,1.394-.463,1.394-1.038S351.455,373.8,350.683,373.8Z" transform="translate(-338.093 -350.996)"/><path class="a" d="M350.683,373.8h-2.789c-.772,0-1.394.464-1.394,1.038s.623,1.038,1.394,1.038h2.789c.772,0,1.394-.463,1.394-1.038S351.455,373.8,350.683,373.8Z" transform="translate(-315.683 -356.599)"/><path class="a" d="M350.683,373.8h-2.789c-.772,0-1.394.464-1.394,1.038s.623,1.038,1.394,1.038h2.789c.772,0,1.394-.463,1.394-1.038S351.455,373.8,350.683,373.8Z" transform="translate(-326.888 -356.599)"/><path class="a" d="M350.683,373.8h-2.789c-.772,0-1.394.464-1.394,1.038s.623,1.038,1.394,1.038h2.789c.772,0,1.394-.463,1.394-1.038S351.455,373.8,350.683,373.8Z" transform="translate(-338.093 -356.599)"/><path class="a" d="M35.191,53.818H58.413a1.393,1.393,0,0,0,1.394-1.394V16.076a1.393,1.393,0,0,0-1.394-1.394H51.348V13.194a1.394,1.394,0,1,0-2.789,0v1.487H42.981V13.194a1.394,1.394,0,0,0-2.789,0v1.487H34.615V13.194a1.394,1.394,0,1,0-2.789,0v1.487H26.248V13.194a1.394,1.394,0,1,0-2.789,0v1.487H16.394A1.393,1.393,0,0,0,15,16.076V52.424a1.393,1.393,0,0,0,1.394,1.394H39.616M23.459,17.471v1.394a1.394,1.394,0,1,0,2.789,0V17.471h5.578v1.394a1.394,1.394,0,1,0,2.789,0V17.471h5.578v1.394a1.394,1.394,0,0,0,2.789,0V17.471h5.578v1.394a1.394,1.394,0,1,0,2.789,0V17.471h5.671v5.578H17.789V17.471ZM38.212,51.03H17.789V25.837h39.23V51.03Z" transform="translate(-15 -11.8)"/><g transform="translate(30.494 31.876)"><path class="a" d="M348.955,298.879,345,294.928a1.074,1.074,0,1,0-1.45,1.45l3.942,3.942a1.073,1.073,0,1,0,1.459-1.441Z" transform="translate(-343.055 -294.429)"/><path class="a" d="M344.978,300.346l3.942-3.942a1.074,1.074,0,1,0-1.45-1.45l-3.942,3.942a1.074,1.074,0,1,0,1.45,1.45Z" transform="translate(-343.029 -294.455)"/></g></g><g class="b" transform="translate(946 2401)"><circle class="c" cx="40.5" cy="40.5" r="40.5"/><circle class="d" cx="40.5" cy="40.5" r="39"/></g><path class="b" d="M0,0,40.846,38.769,55.62,52.792" transform="translate(957.592 2416.483)"/></g></svg>