<svg xmlns="http://www.w3.org/2000/svg" width="81.79" height="54.528" viewBox="0 0 81.79 54.528"><defs><style>.a{fill:#fff;}</style></defs><g transform="translate(0.297)"><path class="a" d="M1185.792,242.246a1.7,1.7,0,0,0,1.7-1.7v-6.816a1.7,1.7,0,1,0-3.407,0v6.816A1.7,1.7,0,0,0,1185.792,242.246Z" transform="translate(-1144.512 -226.909)"/><path class="a" d="M26.178.716l0-.005A1.7,1.7,0,0,0,23.8.32h0l-12.75,9.15A6.914,6.914,0,1,0,13.2,12.124L25.778,3.093A1.706,1.706,0,0,0,26.178.716ZM8.935,17.78a3.4,3.4,0,1,1-.52-5.929,3.37,3.37,0,0,1,1,.688,1.225,1.225,0,0,0,.065.147,1.7,1.7,0,0,0,.36.362A3.408,3.408,0,0,1,8.935,17.78Z" transform="translate(31.517 53.899) rotate(-115)"/><path class="a" d="M1203.988,258.6a1.7,1.7,0,0,0,1.7,1.7h6.817a1.7,1.7,0,0,0,0-3.408h-6.817A1.7,1.7,0,0,0,1203.988,258.6Z" transform="translate(-1137.149 -217.706)"/><path class="a" d="M1167.731,256.9h-6.816a1.7,1.7,0,1,0,0,3.408h6.816a1.7,1.7,0,0,0,0-3.408Z" transform="translate(-1153.716 -217.706)"/><path class="a" d="M1175.074,236.469a1.7,1.7,0,0,0-2.936,1.732l2.9,4.92a1.7,1.7,0,1,0,2.936-1.732Z" transform="translate(-1149.021 -225.574)"/><path class="a" d="M1201.742,249.738a1.7,1.7,0,0,0,2.321.647l5.028-2.839a1.7,1.7,0,0,0-1.675-2.969l-5.028,2.84A1.7,1.7,0,0,0,1201.742,249.738Z" transform="translate(-1138.062 -222.345)"/><path class="a" d="M1170.552,247.415l-5.028-2.839a1.7,1.7,0,0,0-1.675,2.969l5.029,2.839a1.7,1.7,0,0,0,1.674-2.969Z" transform="translate(-1152.321 -222.346)"/><path class="a" d="M1199.626,235.872l-.007-.005a1.706,1.706,0,0,0-2.335.6v0l-2.9,4.918a1.707,1.707,0,0,0,2.938,1.737l2.9-4.92A1.7,1.7,0,0,0,1199.626,235.872Z" transform="translate(-1140.79 -225.574)"/><path class="a" d="M1225.207,239.938a41.069,41.069,0,0,0-69.727,29.194v9.142a4.58,4.58,0,0,0,4.6,4.544h72.588a4.581,4.581,0,0,0,4.6-4.544v-9.939A39.362,39.362,0,0,0,1225.207,239.938Zm8.654,38.339a1.169,1.169,0,0,1-1.193,1.137H1160.08a1.169,1.169,0,0,1-1.193-1.137v-9.145a37.663,37.663,0,0,1,63.943-26.753,35.987,35.987,0,0,1,11.031,25.955v9.942Z" transform="translate(-1155.777 -228.29)"/></g></svg>