<svg xmlns="http://www.w3.org/2000/svg" width="35.703" height="23.802" viewBox="0 0 35.703 23.802"><defs><style>.a{fill:#fff;}</style></defs><path class="a" d="M1184.831,236.485a.743.743,0,0,0,.743-.744v-2.975a.744.744,0,1,0-1.487,0v2.975A.744.744,0,0,0,1184.831,236.485Z" transform="translate(-1166.98 -229.79)"/><path class="a" d="M1192.384,247.962l0,0a.744.744,0,0,0-1.038-.17h0l-5.566,3.994a3.018,3.018,0,1,0,.939,1.158l5.493-3.942A.744.744,0,0,0,1192.384,247.962Zm-7.527,7.449a1.489,1.489,0,1,1,.21-2.288.533.533,0,0,0,.029.064.742.742,0,0,0,.157.158A1.488,1.488,0,0,1,1184.856,255.411Z" transform="matrix(0.588, -0.809, 0.809, 0.588, -883.755, 827.078)"/><path class="a" d="M1203.988,257.642a.743.743,0,0,0,.743.744h2.976a.744.744,0,0,0,0-1.488h-2.976A.743.743,0,0,0,1203.988,257.642Z" transform="translate(-1174.98 -239.79)"/><path class="a" d="M1162.93,256.9h-2.975a.744.744,0,1,0,0,1.488h2.975a.744.744,0,0,0,0-1.488Z" transform="translate(-1156.98 -239.79)"/><path class="a" d="M1173.286,236a.744.744,0,0,0-1.281.756l1.265,2.147a.744.744,0,1,0,1.282-.756Z" transform="translate(-1162.081 -231.241)"/><path class="a" d="M1201.617,246.706a.744.744,0,0,0,1.013.282l2.195-1.239a.744.744,0,0,0-.731-1.3l-2.195,1.24A.743.743,0,0,0,1201.617,246.706Z" transform="translate(-1173.988 -234.749)"/><path class="a" d="M1166.287,245.692l-2.195-1.239a.744.744,0,0,0-.731,1.3l2.2,1.239a.744.744,0,0,0,.731-1.3Z" transform="translate(-1158.496 -234.749)"/><path class="a" d="M1196.54,235.736l0,0a.745.745,0,0,0-1.019.263h0l-1.265,2.147a.745.745,0,0,0,1.283.758l1.264-2.147A.743.743,0,0,0,1196.54,235.736Z" transform="translate(-1171.025 -231.241)"/><path class="a" d="M1185.917,233.374a17.927,17.927,0,0,0-30.437,12.744v3.991a2,2,0,0,0,2.008,1.984h31.686a2,2,0,0,0,2.009-1.984V245.77A17.182,17.182,0,0,0,1185.917,233.374Zm3.778,16.735a.51.51,0,0,1-.521.5h-31.686a.51.51,0,0,1-.521-.5v-3.992a16.44,16.44,0,0,1,27.912-11.678,15.709,15.709,0,0,1,4.815,11.33v4.34Z" transform="translate(-1155.48 -228.29)"/></svg>