<svg xmlns="http://www.w3.org/2000/svg" width="44" height="29.334" viewBox="0 0 44 29.334"><defs><style>.a{fill:#fff;}</style></defs><g transform="translate(-339 -956.814)"><g transform="translate(125.861 728.524)"><path class="a" d="M242.663,237.522a.917.917,0,0,0,.917-.917v-3.667a.917.917,0,0,0-1.834,0v3.667A.917.917,0,0,0,242.663,237.522Z" transform="translate(-7.524 -0.982)"/><path class="a" d="M227.375,248.271v0a.917.917,0,0,0,.42,1.226h0l7.581,3.715a3.722,3.722,0,1,0,.71-1.693l-7.482-3.668A.918.918,0,0,0,227.375,248.271Zm12.476,3.832a1.829,1.829,0,1,1-2.679,1.755,1.8,1.8,0,0,1,.072-.649c.015-.026.04-.042.052-.069a.914.914,0,0,0,.08-.263A1.834,1.834,0,0,1,239.851,252.1Z" transform="translate(-3.719 -5.121)"/><path class="a" d="M261.647,257.815a.917.917,0,0,0,.916.917h3.667a.917.917,0,0,0,0-1.834h-3.667A.917.917,0,0,0,261.647,257.815Z" transform="translate(-12.758 -7.524)"/><path class="a" d="M221.453,256.9h-3.667a.917.917,0,1,0,0,1.834h3.667a.917.917,0,0,0,0-1.834Z" transform="translate(-0.981 -7.524)"/><path class="a" d="M231.267,236.082a.917.917,0,0,0-1.579.932l1.559,2.647a.917.917,0,1,0,1.579-.932Z" transform="translate(-4.319 -1.931)"/><path class="a" d="M259.3,247.252a.917.917,0,0,0,1.248.348l2.7-1.527a.917.917,0,1,0-.9-1.6l-2.7,1.528A.916.916,0,0,0,259.3,247.252Z" transform="translate(-12.109 -4.226)"/><path class="a" d="M224.714,246l-2.7-1.527a.917.917,0,0,0-.9,1.6l2.706,1.527a.917.917,0,0,0,.9-1.6Z" transform="translate(-1.973 -4.226)"/><path class="a" d="M254.755,235.761l0,0a.917.917,0,0,0-1.255.324h0l-1.559,2.646a.918.918,0,0,0,1.581.935l1.558-2.647A.916.916,0,0,0,254.755,235.761Z" transform="translate(-10.17 -1.931)"/><path class="a" d="M250.65,234.556a22.094,22.094,0,0,0-37.511,15.705v4.918a2.464,2.464,0,0,0,2.475,2.445h39.05a2.464,2.464,0,0,0,2.476-2.445v-5.347A21.176,21.176,0,0,0,250.65,234.556Zm4.656,20.625a.629.629,0,0,1-.642.612h-39.05a.629.629,0,0,1-.642-.612v-4.919a20.261,20.261,0,0,1,34.4-14.392,19.359,19.359,0,0,1,5.934,13.963v5.348Z" transform="translate(0 0)"/></g></g></svg>