<svg xmlns="http://www.w3.org/2000/svg" width="262" height="260" viewBox="0 0 262 260"><defs><style>.a{fill:#1d1d1b;}.b{fill:#fff;}.c{fill:#e30613;}.d{fill:#131108;}</style></defs><g transform="translate(-0.003 -0.001)"><path class="a" d="M20.22.13,259.8,224.994s-.626,9.988-.626,23.111-9.01,11.864-9.01,11.864H11.915c-13.132,0-11.879-14.99-11.879-14.99L2.088,24.171V9.858S1.261,6.792,6.131,4.586C10.488,2.614,18.15-.695,20.22.13Z" transform="translate(0 0)"/><path class="a" d="M231.4,247.566h-.026L29.58,245.109a2.453,2.453,0,0,1-2.426-2.388L20.51,3.639a2.448,2.448,0,0,1,2.844-2.484L254.646,38.55a2.455,2.455,0,0,1,2.061,2.31l7.966,179.628a2.464,2.464,0,0,1-.922,2.032l-30.82,24.525A2.525,2.525,0,0,1,231.4,247.566Zm-199.394-7.33,198.559,2.414,29.151-23.2L251.9,43.066,25.5,6.462Z" transform="translate(-2.673 -0.147)"/><path class="b" d="M26.753,3.79,26.64,202.027l235.25,6.879L254.263,41.942Z" transform="translate(-3.472 -0.494)"/><path class="c" d="M26.49,229.87v43.517l208.995,1.252,26.89-25.011-.626-13.758Z" transform="translate(-3.453 -30.307)"/><g transform="translate(231.18 219.467)"><path class="b" d="M294.722,254.92l-26.742,1.426v24.829Z" transform="translate(-266.11 -253.04)"/><path class="d" d="M267.7,282.771a1.913,1.913,0,0,1-.722-.148,1.87,1.87,0,0,1-1.148-1.731V256.064a1.871,1.871,0,0,1,1.774-1.87l26.733-1.435a1.888,1.888,0,0,1,1.818,1.113,1.864,1.864,0,0,1-.4,2.087l-26.742,26.255A1.838,1.838,0,0,1,267.7,282.771Zm1.87-24.933v18.593L289.6,256.769Z" transform="translate(-265.83 -252.758)"/></g><g transform="translate(59.528 47.703)"><path class="a" d="M87.835,57.832a22.085,22.085,0,0,1,5.287,1.418,14.336,14.336,0,0,1,4.131,2.557,10.9,10.9,0,0,1,2.731,3.722,12.36,12.36,0,0,1,1.026,4.922,8.572,8.572,0,0,1-1.731,5.931,8.861,8.861,0,0,1-5.14,2.757v.2a13.349,13.349,0,0,1,4.07,1.791,10.4,10.4,0,0,1,2.7,2.592,10.553,10.553,0,0,1,1.487,3.07,12.016,12.016,0,0,1,.513,3.183q.261,14.075-18.193,12.2l-15.784-1.6-.478-45.6Zm-8.079,7.679.113,8.749,4.322.557a4.081,4.081,0,0,0,3.331-.87,3.569,3.569,0,0,0,1.278-2.9A5.06,5.06,0,0,0,87.669,67.8a4.679,4.679,0,0,0-3.113-1.626Zm.357,26.924,5.461.609a4.943,4.943,0,0,0,3.826-.87,4.442,4.442,0,0,0,1.339-3.731A4.912,4.912,0,0,0,89.5,85.409a5.943,5.943,0,0,0-4.07-1.818l-5.453-.652Z" transform="translate(-68.45 -54.98)"/><path class="a" d="M149.816,100.441a11.186,11.186,0,0,1-4.009,5.018,15.159,15.159,0,0,1-6.409,2.357,33.768,33.768,0,0,1-8.323.1,42.673,42.673,0,0,1-7.035-1.3,17.273,17.273,0,0,1-6.192-3.122,15.828,15.828,0,0,1-4.453-5.888,23.885,23.885,0,0,1-1.835-9.54l-.53-26.846,11.184,1.635.591,26.09c.07,3.052.791,5.34,2.183,6.862a9.452,9.452,0,0,0,6.218,2.731c2.8.3,4.957-.078,6.462-1.174s2.218-3.07,2.139-5.94l-.7-26.1,11.184,1.635.765,25.35A19.532,19.532,0,0,1,149.816,100.441Z" transform="translate(-74 -55.793)"/><path class="a" d="M162.47,68.75l30.5,4.461.357,8.757-19.358-2.644.261,7.288,18.132,2.339.339,8.462-18.176-2.165.27,7.609,19.463,2.165.365,8.879-30.82-3.131Z" transform="translate(-80.705 -56.775)"/><path class="a" d="M215.443,76.5l18.95,27.925-1.3-25.342L243.438,80.6l2.122,38.7L232.5,117.977,213.722,90.522l1.157,25.663-10.392-1.052-1.7-40.474Z" transform="translate(-85.961 -57.545)"/><path class="a" d="M69.57,111.19l38.23,3.757.244,11.993-23.95-2.07.157,10.975,22.4,1.7.226,11.505L84.424,147.6l.3,22.028L70.187,169Z" transform="translate(-68.596 -62.307)"/><path class="a" d="M118.29,115.98l14.349,1.418L134,172.1l-14.541-.617Z" transform="translate(-74.947 -62.931)"/><path class="a" d="M159.578,120.031l23.907,35.995-1.27-33.76,13.28,1.3,2.131,51.44-16.793-.722-23.7-35.325,1.035,34.351-13.367-.574-1.452-54.3Z" transform="translate(-78.213 -63.252)"/></g><g transform="translate(185.395 114.67)"><path class="c" d="M213.189,142.2a4.258,4.258,0,0,1,1.739-3.966,6.724,6.724,0,0,1,4.566-1.052,8.118,8.118,0,0,1,4.583,1.861,5.56,5.56,0,0,1,2.087,4.209,4.284,4.284,0,0,1-1.887,3.653,6.149,6.149,0,0,1-4.409,1.409,7.441,7.441,0,0,1-4.609-2.026A5.848,5.848,0,0,1,213.189,142.2Zm7.853,28.872a7.994,7.994,0,0,1-4.714-1.731,5.541,5.541,0,0,1-2.139-4.3,4.583,4.583,0,0,1,1.687-3.826,6.016,6.016,0,0,1,4.514-1.357,7.8,7.8,0,0,1,4.74,1.9,5.573,5.573,0,0,1,2.113,4.018,4.448,4.448,0,0,1-1.731,4.026A6.584,6.584,0,0,1,221.042,171.075Z" transform="translate(-213.182 -132.73)"/><path class="c" d="M248.937,155.263a25.461,25.461,0,0,1-1.1,9.279,32.724,32.724,0,0,1-4.409,8.6,11,11,0,0,1-2.748,3.052,5.282,5.282,0,0,1-2.887.513c-.913-.043-1.391-.278-1.409-.687a12.376,12.376,0,0,1,1.052-2.192c.7-1.322,1.418-2.887,2.165-4.714a34.826,34.826,0,0,0,1.826-6.462,32.866,32.866,0,0,0,.513-7.879,35.515,35.515,0,0,0-1.339-8.044,46.211,46.211,0,0,0-2.487-6.749q-1.37-2.9-2.609-5.044a18.716,18.716,0,0,1-1.261-2.348c-.026-.417.426-.583,1.331-.5a6.363,6.363,0,0,1,2.966.9,14.782,14.782,0,0,1,2.992,3.435q1.722,2.4,3.044,4.687a37.511,37.511,0,0,1,2.235,4.522,28.414,28.414,0,0,1,1.461,4.635A32.206,32.206,0,0,1,248.937,155.263Z" transform="translate(-215.927 -132.068)"/></g><path class="a" d="M115.928,33.7c.061,3.113-2.5,5.218-5.731,4.679a7.256,7.256,0,0,1-5.957-6.679c-.061-3.157,2.513-5.244,5.731-4.679A7.338,7.338,0,0,1,115.928,33.7Z" transform="translate(-13.587 -3.509)"/><path class="a" d="M111.145,38.688A6.109,6.109,0,0,1,110.1,38.6a7.559,7.559,0,0,1-6.192-6.949,4.987,4.987,0,0,1,1.365-3.618,5.213,5.213,0,0,1,4.687-1.339,7.643,7.643,0,0,1,6.192,6.949,4.906,4.906,0,0,1-1.348,3.583A5.022,5.022,0,0,1,111.145,38.688Zm-2.261-11.532a4.248,4.248,0,0,0-4.409,4.487,6.977,6.977,0,0,0,5.722,6.4,4.759,4.759,0,0,0,4.218-1.209,4.4,4.4,0,0,0,1.2-3.183,7.078,7.078,0,0,0-5.731-6.409A5.689,5.689,0,0,0,108.884,27.157Z" transform="translate(-13.544 -3.467)"/><path class="a" d="M205.668,49.131c.122,2.87-2.4,4.766-5.627,4.235s-5.948-3.331-6.061-6.235,2.4-4.8,5.627-4.227S205.537,46.261,205.668,49.131Z" transform="translate(-25.284 -5.579)"/><path class="a" d="M201.057,53.687a6.24,6.24,0,0,1-1.122-.1c-3.348-.557-6.175-3.47-6.3-6.5a4.25,4.25,0,0,1,1.165-3.209,5.285,5.285,0,0,1,4.792-1.313c3.339.591,6.166,3.513,6.3,6.5a4.172,4.172,0,0,1-1.148,3.166A5,5,0,0,1,201.057,53.687Zm-2.635-10.662a4.364,4.364,0,0,0-3.209,1.252,3.7,3.7,0,0,0-1.009,2.792c.113,2.783,2.731,5.453,5.827,5.966a4.82,4.82,0,0,0,4.313-1.183,3.669,3.669,0,0,0,.991-2.757c-.113-2.739-2.731-5.418-5.827-5.975A6.724,6.724,0,0,0,198.422,43.025Z" transform="translate(-25.239 -5.534)"/><g transform="translate(64.859 165.961)"><path class="a" d="M92.474,191.12l6.175.3-.026,1.035-5.1-.235-.078,3.322,5.061.226-.026,1.035-5.053-.217-.1,4.174,5.053.2-.026,1.035-6.131-.235Z" transform="translate(-76.881 -191.12)"/><path class="a" d="M101.543,191.55l1.078.052-.217,9.531,4.148.157-.026,1.017-5.227-.2Z" transform="translate(-78.063 -191.176)"/><path class="a" d="M113.952,192.14l5.4.252-.026,1.018-4.322-.2-.078,3.27,4.322.183-.026,1.017L114.9,197.5l-.122,5.122-1.078-.043Z" transform="translate(-79.679 -191.253)"/><path class="a" d="M121.964,192.52l1.078.052-.243,10.375-1.078-.043Z" transform="translate(-80.725 -191.302)"/><path class="a" d="M125.64,203.058l.244-10.358.235.009,6.992,8.218.183-7.879,1.061.052-.243,10.271-.243-.009-6.931-8.1-.183,7.827Z" transform="translate(-81.236 -191.326)"/><path class="a" d="M142.82,203.71l.252-10.21,2.235.1a12.386,12.386,0,0,1,3.5.53,4.831,4.831,0,0,1,2.409,1.9,5.242,5.242,0,0,1,.809,3.07,5.022,5.022,0,0,1-.765,2.652A4.307,4.307,0,0,1,149.4,203.4a7.141,7.141,0,0,1-3.148.435Zm1.061-.922,1.244.043a12.26,12.26,0,0,0,3.1-.148,3.514,3.514,0,0,0,1.948-1.27,3.936,3.936,0,0,0,.757-2.339,4.2,4.2,0,0,0-.7-2.539,3.955,3.955,0,0,0-2.07-1.522,13.874,13.874,0,0,0-3.331-.444l-.765-.035Z" transform="translate(-83.475 -191.43)"/><path class="a" d="M155.751,194.09l6.175.287-.026.983-5.1-.226-.078,3.166,5.053.217-.026.983-5.061-.209-.1,3.966,5.061.191-.026.983-6.131-.226Z" transform="translate(-85.126 -191.507)"/><path class="a" d="M167.95,202.785l.931-.478c.617,1.122,1.348,1.7,2.192,1.731a2.3,2.3,0,0,0,1.026-.191,1.765,1.765,0,0,0,.739-.6,1.5,1.5,0,0,0,.27-.817,1.609,1.609,0,0,0-.348-1,9.194,9.194,0,0,0-1.8-1.67,9.4,9.4,0,0,1-1.644-1.435,2.418,2.418,0,0,1-.539-1.548,2.2,2.2,0,0,1,.365-1.174,2.3,2.3,0,0,1,.974-.809,2.9,2.9,0,0,1,1.339-.243,3.153,3.153,0,0,1,1.418.417,4.932,4.932,0,0,1,1.374,1.348l-.9.574a4,4,0,0,0-1.017-1.026,2.006,2.006,0,0,0-.931-.278,1.537,1.537,0,0,0-1.078.322,1.156,1.156,0,0,0-.435.887,1.366,1.366,0,0,0,.13.635,2.344,2.344,0,0,0,.522.687c.139.13.591.487,1.365,1.061a7.487,7.487,0,0,1,1.878,1.774,2.7,2.7,0,0,1,.487,1.513,2.4,2.4,0,0,1-.939,1.844,3.117,3.117,0,0,1-2.183.722,3.435,3.435,0,0,1-1.765-.548A5,5,0,0,1,167.95,202.785Z" transform="translate(-86.751 -191.566)"/><path class="a" d="M177.854,195.09l6.175.278-.017.965-5.1-.226-.078,3.1,5.053.209-.026.965-5.053-.2-.1,3.9,5.061.183-.026.965-6.131-.217Z" transform="translate(-88.01 -191.637)"/><path class="a" d="M186.12,205.344l1.783-9.784.174.009,4.183,8.236,4.54-7.844.174.009,1.3,9.8-1.052-.035-.887-7.018-3.983,6.844-.27-.009-3.679-7.218-1.235,7.044Z" transform="translate(-89.119 -191.699)"/><path class="a" d="M206.871,196.42l4.783,9.853-1.165-.035L208.871,203l-4.644-.174-1.757,3.131-1.2-.043,5.34-9.5Zm-.183,2.052-1.939,3.435,3.687.148Z" transform="translate(-91.094 -191.811)"/><path class="a" d="M214.97,206.368l.243-9.618.235.009,6.983,7.627.183-7.322,1.061.052-.244,9.531-.243-.009-6.931-7.514-.183,7.27Z" transform="translate(-92.88 -191.854)"/><path class="a" d="M232.059,197.519l4.783,9.644-1.165-.035-1.618-3.166-4.644-.174-1.765,3.07-1.2-.043,5.34-9.305Zm-.191,2.009-1.931,3.357,3.687.139Z" transform="translate(-94.376 -191.953)"/><path class="a" d="M74.58,218.283l1.791-10.723.174.009,4.183,8.949,4.54-8.644h.174l1.3,10.723-1.052-.026-.887-7.67-3.983,7.54-.278-.009-3.679-7.853-1.235,7.731Z" transform="translate(-74.58 -193.263)"/><path class="a" d="M95.342,207.785l4.783,10.732-1.165-.035-1.609-3.522-4.644-.13-1.757,3.453-1.2-.026,5.34-10.479Zm-.191,2.252-1.939,3.783,3.687.1Zm.6-5.287,1.574.061-2.209,2.139-1.017-.035Z" transform="translate(-76.557 -192.897)"/><path class="a" d="M102.19,217.022l.931-.513q.926,1.761,2.192,1.8a2.2,2.2,0,0,0,1.026-.217,1.789,1.789,0,0,0,.739-.644,1.675,1.675,0,0,0,.27-.87,1.736,1.736,0,0,0-.339-1.044A8.961,8.961,0,0,0,105.2,213.8a9.3,9.3,0,0,1-1.644-1.487,2.55,2.55,0,0,1-.53-1.626,2.341,2.341,0,0,1,.365-1.244,2.377,2.377,0,0,1,.965-.861,2.79,2.79,0,0,1,1.339-.278,2.949,2.949,0,0,1,1.418.417,5,5,0,0,1,1.374,1.4l-.9.617a4.184,4.184,0,0,0-1.017-1.07,1.831,1.831,0,0,0-.931-.287,1.551,1.551,0,0,0-1.078.348,1.235,1.235,0,0,0-.435.939,1.641,1.641,0,0,0,.13.67,2.6,2.6,0,0,0,.522.722c.139.139.591.5,1.365,1.1A7.673,7.673,0,0,1,108.025,215a2.833,2.833,0,0,1,.487,1.591,2.606,2.606,0,0,1-.939,1.957,3.053,3.053,0,0,1-2.183.791,3.217,3.217,0,0,1-1.765-.557A4.912,4.912,0,0,1,102.19,217.022Z" transform="translate(-78.179 -193.359)"/><path class="a" d="M116.731,208.95l2.122.07a5.468,5.468,0,0,1,1.965.357,2.494,2.494,0,0,1,1.07.939,2.406,2.406,0,0,1,.365,1.365,2.281,2.281,0,0,1-.383,1.244,2.476,2.476,0,0,1-1.052.887,3.955,3.955,0,0,1,1.278.687,2.512,2.512,0,0,1,.678.913,2.558,2.558,0,0,1,.226,1.148,2.735,2.735,0,0,1-1,2.087,3.652,3.652,0,0,1-2.565.8l-2.966-.07Zm.922,5.444-.1,4,1.339.035a4.841,4.841,0,0,0,1.739-.174,2,2,0,0,0,.9-.67,1.762,1.762,0,0,0,.357-1.018,1.744,1.744,0,0,0-.444-1.217,2.4,2.4,0,0,0-1.278-.739,9.727,9.727,0,0,0-1.913-.183Zm.1-4.383-.078,3.339.617.017a4.64,4.64,0,0,0,1.652-.157,1.7,1.7,0,0,0,.852-.609,1.574,1.574,0,0,0,.33-.957,1.376,1.376,0,0,0-.487-1.131,2.674,2.674,0,0,0-1.635-.461Z" transform="translate(-80.04 -193.444)"/><path class="a" d="M130.691,209.449l4.783,10.427-1.165-.026-1.618-3.426-4.644-.122-1.757,3.357-1.2-.026,5.34-10.192Zm-.183,2.183-1.939,3.679,3.687.1Z" transform="translate(-81.164 -193.508)"/><path class="a" d="M139.092,209.7l2.148.07a14.431,14.431,0,0,1,2.426.217,2.823,2.823,0,0,1,1.539.939,2.461,2.461,0,0,1,.557,1.7A2.5,2.5,0,0,1,144.1,215a5.82,5.82,0,0,1-2.131.27l3.766,4.835-1.331-.035-3.766-4.844-.609-.017-.113,4.757-1.078-.026Zm1.052,1.044-.078,3.479,1.852.07a4.871,4.871,0,0,0,1.6-.148,1.667,1.667,0,0,0,.826-.6,1.644,1.644,0,0,0,.313-.939,1.605,1.605,0,0,0-.27-.948,1.641,1.641,0,0,0-.757-.617,4.784,4.784,0,0,0-1.574-.226Z" transform="translate(-82.956 -193.542)"/><path class="a" d="M153.589,210.207l4.783,10.236-1.165-.026-1.618-3.366-4.644-.122-1.765,3.3-1.2-.026,5.34-10.01Zm-.191,2.148-1.939,3.609,3.687.1Z" transform="translate(-84.148 -193.606)"/><path class="a" d="M159.3,211.361l.017-.991,5.9.191-.026.983-2.4-.078-.217,9.062-1.1-.026.226-9.07Z" transform="translate(-85.623 -193.629)"/><path class="a" d="M172.779,210.549a5.914,5.914,0,0,1,4.061,1.635,4.98,4.98,0,0,1-.183,7.4,6.1,6.1,0,0,1-8.062-.191,4.832,4.832,0,0,1-1.557-3.731,5.037,5.037,0,0,1,.817-2.652,5.168,5.168,0,0,1,2.1-1.861A5.811,5.811,0,0,1,172.779,210.549Zm.026.965a4.625,4.625,0,0,0-2.278.5,4.3,4.3,0,0,0-1.713,1.5,4.061,4.061,0,0,0-.652,2.165,3.946,3.946,0,0,0,1.261,3.044,4.544,4.544,0,0,0,3.183,1.3,4.917,4.917,0,0,0,2.331-.5,4.194,4.194,0,0,0,1.7-1.5,4.049,4.049,0,0,0,.652-2.139,3.984,3.984,0,0,0-.539-2.157,4.363,4.363,0,0,0-1.644-1.583A5.047,5.047,0,0,0,172.806,211.515Z" transform="translate(-86.632 -193.652)"/><path class="a" d="M186.88,221.114l.243-9.844,2.235.07a12.606,12.606,0,0,1,3.5.461,4.743,4.743,0,0,1,2.409,1.8,4.93,4.93,0,0,1,.809,2.957,4.765,4.765,0,0,1-.765,2.565,4.253,4.253,0,0,1-1.861,1.609,7.474,7.474,0,0,1-3.148.47Zm1.052-.9,1.244.026a12.648,12.648,0,0,0,3.1-.183,3.546,3.546,0,0,0,1.939-1.244,3.756,3.756,0,0,0,.757-2.261,3.911,3.911,0,0,0-.7-2.444,3.776,3.776,0,0,0-2.07-1.435,14.076,14.076,0,0,0-3.322-.383l-.765-.026Z" transform="translate(-89.218 -193.747)"/><path class="a" d="M199.8,211.66l6.175.191-.017.948-5.1-.148-.078,3.052,5.053.139-.026.948-5.053-.13-.1,3.826,5.061.113-.026.948-6.131-.13Z" transform="translate(-90.871 -193.797)"/><path class="a" d="M208.874,211.94l1.078.035-.217,8.731,4.148.087-.026.931-5.227-.113Z" transform="translate(-92.053 -193.834)"/><path class="a" d="M225.541,212.479l4.783,9.627-1.165-.026-1.618-3.166L222.9,218.8l-1.757,3.113-1.2-.026,5.34-9.418Zm-.191,2.018-1.939,3.4,3.687.087Z" transform="translate(-93.527 -193.903)"/><path class="a" d="M233.63,221.846l.243-9.462.235.009,6.983,7.418.183-7.2,1.061.035-.243,9.384-.235-.009-6.931-7.305-.183,7.166Zm6.714-11.305.5.635a4.412,4.412,0,0,1-.9.426,2.8,2.8,0,0,1-.765.1,2.854,2.854,0,0,1-1.087-.27,3.942,3.942,0,0,0-.6-.252,1.356,1.356,0,0,0-.383-.052,1.5,1.5,0,0,0-.487.061,3.991,3.991,0,0,0-.678.339l-.47-.67a2.286,2.286,0,0,1,1.661-.574,3.174,3.174,0,0,1,1.113.3,2.817,2.817,0,0,0,.974.287A2.944,2.944,0,0,0,240.344,210.541Z" transform="translate(-95.312 -193.617)"/><path class="a" d="M251.549,212.98a6.062,6.062,0,0,1,4.061,1.531,4.451,4.451,0,0,1-.183,6.914,6.426,6.426,0,0,1-8.062-.165,4.35,4.35,0,0,1-1.557-3.487,4.442,4.442,0,0,1,.817-2.479,5.083,5.083,0,0,1,2.1-1.739A6.105,6.105,0,0,1,251.549,212.98Zm.026.9a4.9,4.9,0,0,0-2.278.47,4.169,4.169,0,0,0-1.713,1.409,3.625,3.625,0,0,0-.652,2.026,3.563,3.563,0,0,0,1.261,2.844,4.747,4.747,0,0,0,3.183,1.217,5.178,5.178,0,0,0,2.339-.478,4.162,4.162,0,0,0,1.7-1.391,3.569,3.569,0,0,0,.652-2.009,3.5,3.5,0,0,0-.548-2.009,4.221,4.221,0,0,0-1.652-1.478A5.3,5.3,0,0,0,251.575,213.884Z" transform="translate(-96.899 -193.969)"/></g><g transform="translate(38.97 217.512)"><path class="b" d="M45.584,250.82h2.548v12.967H46.845v-11.7H44.81Z" transform="translate(-44.81 -250.55)"/><path class="b" d="M67.22,259.5h4.853v1.078H67.22Z" transform="translate(-47.731 -251.682)"/><g transform="translate(35.899)"><path class="b" d="M94.108,260.215a4.012,4.012,0,0,1-8.018,0,3.3,3.3,0,0,1,1.983-3.2,3.2,3.2,0,0,1-1.591-2.87,3.618,3.618,0,1,1,7.236,0,3.2,3.2,0,0,1-1.591,2.87A3.29,3.29,0,0,1,94.108,260.215Zm-1.452-.035a2.558,2.558,0,0,0-5.114,0,2.557,2.557,0,0,0,5.114,0Zm-.313-6.018a2.244,2.244,0,1,0-2.244,2.261A2.214,2.214,0,0,0,92.343,254.163Z" transform="translate(-86.09 -250.51)"/></g><g transform="translate(6.888 0.243)"><path class="b" d="M61.287,252.086H57.174l-.826,2.774a3.36,3.36,0,0,1,.809-.078,4.176,4.176,0,0,1,4.235,4.444,4.49,4.49,0,0,1-4.679,4.618,4.365,4.365,0,0,1-2.87-1,5.475,5.475,0,0,1-1.113-1.3l1.139-.809a2.833,2.833,0,0,0,.87,1.035,3.144,3.144,0,0,0,2.078.774,3.187,3.187,0,0,0,3.157-3.287,3.047,3.047,0,0,0-3.157-3.157,4.173,4.173,0,0,0-2.479.887l1.87-6.192h5.1v1.3Z" transform="translate(-52.73 -250.79)"/></g><path class="b" d="M78.324,250.82h2.548v12.967H79.585v-11.7H77.55Z" transform="translate(-49.078 -250.55)"/><g transform="translate(55.893 0.591)"><path class="b" d="M109.08,263.852l.157-12.662,2.626.035a13.526,13.526,0,0,1,4.113.5,5.485,5.485,0,0,1,2.852,2.27,6.806,6.806,0,0,1,.991,3.809,6.708,6.708,0,0,1-.861,3.339,5.188,5.188,0,0,1-2.165,2.1,8.131,8.131,0,0,1-3.687.644Zm1.226-1.183,1.461.017a13.517,13.517,0,0,0,3.644-.278,4.191,4.191,0,0,0,2.27-1.644,5.1,5.1,0,0,0,.852-2.939,5.441,5.441,0,0,0-.844-3.139,4.487,4.487,0,0,0-2.444-1.809,14.694,14.694,0,0,0-3.913-.409l-.9-.009Z" transform="translate(-109.08 -251.19)"/><path class="b" d="M124.335,251.38l7.253.087-.017,1.244-5.992-.078-.052,3.966,5.94.078-.017,1.244-5.94-.078-.061,4.974,5.94.078-.017,1.235-7.2-.087Z" transform="translate(-111.047 -251.215)"/><path class="b" d="M140.65,264.242l.157-12.662h.278l8.305,9.81.122-9.705,1.252.017-.157,12.662h-.287l-8.236-9.688-.122,9.584Z" transform="translate(-113.195 -251.241)"/><path class="b" d="M161.77,251.5a6.581,6.581,0,0,1,4.792,1.983,6.37,6.37,0,0,1,1.878,4.748,6.7,6.7,0,0,1-11.462,4.583,6.314,6.314,0,0,1-1.878-4.687,6.8,6.8,0,0,1,.922-3.374,6.524,6.524,0,0,1,5.748-3.252Zm.035,1.226a5.215,5.215,0,0,0-2.67.7,5.288,5.288,0,0,0-1.992,1.948,5.466,5.466,0,0,0-.739,2.757,5.2,5.2,0,0,0,1.513,3.835,5.128,5.128,0,0,0,3.748,1.6,5.517,5.517,0,0,0,2.739-.678,5.16,5.16,0,0,0,1.983-1.931,5.547,5.547,0,0,0,.739-2.748,5.345,5.345,0,0,0-.67-2.731A5.261,5.261,0,0,0,164.5,253.5,5.345,5.345,0,0,0,161.8,252.726Z" transform="translate(-115.078 -251.23)"/><path class="b" d="M172.34,251.98l1.374.017,4.07,9.836,4.383-9.723,1.374.017-5.67,12.593h-.278Z" transform="translate(-117.326 -251.293)"/><path class="b" d="M187.457,252.18l1.27.017-.157,12.662-1.27-.017Z" transform="translate(-119.276 -251.319)"/><path class="b" d="M192.245,252.24l7.253.087-.017,1.244-5.992-.078-.052,3.966,5.94.078-.017,1.244-5.94-.078-.061,4.974,5.94.078-.017,1.235-7.2-.087Z" transform="translate(-119.899 -251.327)"/><path class="b" d="M202.28,265.026l1.974-12.636h.209l5.018,10.453,5.227-10.323h.2l1.661,12.68-1.244-.017-1.139-9.07-4.592,9h-.322l-4.418-9.184-1.357,9.105Z" transform="translate(-121.228 -251.346)"/><path class="b" d="M221.777,252.61l2.5.035a5.925,5.925,0,0,1,2.313.383,2.8,2.8,0,0,1,1.261,1.113,3.085,3.085,0,0,1,.452,1.652,2.9,2.9,0,0,1-.435,1.531,3.01,3.01,0,0,1-1.217,1.1,4.723,4.723,0,0,1,1.5.809,3.2,3.2,0,0,1,1.1,2.5A3.387,3.387,0,0,1,228.1,264.3a4.154,4.154,0,0,1-3,1.018l-3.479-.043Zm1.157,6.583-.061,4.853,1.565.017a5.7,5.7,0,0,0,2.035-.243,2.309,2.309,0,0,0,1.052-.835,2.216,2.216,0,0,0-.122-2.722,2.83,2.83,0,0,0-1.5-.878,11.068,11.068,0,0,0-2.252-.183Zm.07-5.331-.052,4.053.722.009a5.731,5.731,0,0,0,1.939-.217,2.085,2.085,0,0,0,1.365-1.939,1.668,1.668,0,0,0-.591-1.374,3.068,3.068,0,0,0-1.931-.522Z" transform="translate(-123.749 -251.375)"/><path class="b" d="M233.444,252.75l2.522.035a15.113,15.113,0,0,1,2.852.209,3.246,3.246,0,0,1,1.818,1.131,3.18,3.18,0,0,1,.678,2.1,3.364,3.364,0,0,1-.513,1.809,3.066,3.066,0,0,1-1.409,1.165,6.382,6.382,0,0,1-2.5.374l4.479,5.94-1.565-.017-4.479-5.94-.713-.009-.07,5.879-1.27-.017Zm1.252,1.261-.052,4.3,2.183.043a5.459,5.459,0,0,0,1.878-.217,1.97,1.97,0,0,0,.957-.757,2.129,2.129,0,0,0,.357-1.183,2.043,2.043,0,0,0-.33-1.165,1.943,1.943,0,0,0-.9-.757,5.412,5.412,0,0,0-1.861-.243Z" transform="translate(-125.268 -251.393)"/><path class="b" d="M245.685,252.91l7.253.087-.017,1.244-5.992-.078-.052,3.966,5.94.078-.017,1.244-5.94-.078-.061,4.974,5.94.078-.017,1.235-7.2-.087Z" transform="translate(-126.865 -251.414)"/></g></g></g></svg>