<svg xmlns="http://www.w3.org/2000/svg" xmlns:xlink="http://www.w3.org/1999/xlink" width="200" height="200" viewBox="0 0 200 200"><defs><style>.a{fill:url(#a);}.b{fill:#fff;}.b,.c{font-size:16px;letter-spacing:-0.05em;}.b,.c,.e{font-family:FrutigerLTStd-Bold, Frutiger LT Std;font-weight:700;}.c{fill:#95c841;}.d{font-family:FrutigerLTStd-Black, Frutiger LT Std;font-weight:800;}.f{filter:url(#b);}</style><linearGradient id="a" x1="0.5" x2="0.5" y2="1" gradientUnits="objectBoundingBox"><stop offset="0" stop-color="#613692"/><stop offset="1" stop-color="#492c7c"/></linearGradient><filter id="b" x="0" y="0" width="200" height="200" filterUnits="userSpaceOnUse"><feOffset dy="2" input="SourceAlpha"/><feGaussianBlur stdDeviation="5" result="c"/><feFlood flood-opacity="0.302"/><feComposite operator="in" in2="c"/><feComposite in="SourceGraphic"/></filter></defs><g transform="translate(-269 -1074)"><g class="f" transform="matrix(1, 0, 0, 1, 269, 1074)"><path class="a" d="M1720-55a85,85,0,0,1,85-85,85,85,0,0,1,85,85,84.749,84.749,0,0,1-25.374,60.578l5.836,16.707a1,1,0,0,1-1.139,1.31l-22.633-4.5A84.617,84.617,0,0,1,1805,30,85,85,0,0,1,1720-55Z" transform="translate(-1705 153)"/></g><text class="b" transform="translate(369 1132)"><tspan x="-51.104" y="0">Porque no solo</tspan><tspan x="-54.856" y="20">hay un Buen Fin</tspan></text><text class="c" transform="translate(369 1192)"><tspan x="-58.392" y="0">continuamos con</tspan><tspan class="d"><tspan x="-63.208" y="20">suscripción baja</tspan><tspan class="e" y="20">!</tspan></tspan></text><text class="c" transform="translate(369 1172)"><tspan x="-72.136" y="0">¡En </tspan><tspan class="d" y="0">ON Inalámbrico</tspan></text></g></svg>