<svg xmlns="http://www.w3.org/2000/svg" width="66.356" height="79.159" viewBox="0 0 66.356 79.159"><defs><style>.a{fill:#fff;}</style></defs><path class="a" d="M77.363,677.4q8.039,8.475,16.068,16.959a16.594,16.594,0,0,0,1.706,1.55,17.244,17.244,0,0,0,19.385,1.553c.725-.408,1.3-1,2-1.435l2.044-1.937c.048-.2.231-.282.356-.415a12.574,12.574,0,0,0,1.623-2.005,15.967,15.967,0,0,0,2.029-4.683c1.415-6.023.317-11.449-3.988-16.033-5.563-5.923-11.176-11.8-16.765-17.7a5.133,5.133,0,0,0-.577-.535,1.37,1.37,0,0,0-1.531-.2c-.535.278-.843.1-1.2-.293-1.7-1.826-3.39-3.671-5.163-5.425a3.139,3.139,0,0,1-1.19-3c.164-.839-.972-1.907-1.767-1.92a2.131,2.131,0,0,0-1.848,1.8,20.433,20.433,0,0,1-.057,2.193,2.427,2.427,0,0,0,.751,1.981c.583.583,1.129,1.206,1.71,1.793.321.323.339.6-.024.887-.1.081-.19.181-.288.269-.439.4-.515.4-.919-.011-.553-.564-1.077-1.153-1.636-1.71a2.606,2.606,0,0,0-1.588-.891,23.766,23.766,0,0,0-2.813-.076,2.091,2.091,0,0,0-1.695,1.586,1.833,1.833,0,0,0,1.16,1.926,2.833,2.833,0,0,0,.882.164c.356.017.712.024,1.068.035a1.113,1.113,0,0,1,.8.358c2.07,2.175,4.13,4.359,6.2,6.537a.6.6,0,0,1,.1.8,1.825,1.825,0,0,0,.3,2.234c.162.184.332.358.5.535l15.8,16.675c.168.179.341.352.5.535A4.5,4.5,0,1,1,102.6,685.5q-7.751-8.171-15.5-16.347a23.468,23.468,0,0,0-1.933-1.883,17.178,17.178,0,0,0-24.527,2.3,15.5,15.5,0,0,0-3.121,5.868,17.158,17.158,0,0,0,.861,12.141,15.694,15.694,0,0,0,3.005,4.385q8.38,8.852,16.771,17.7a4.984,4.984,0,0,0,.533.5,1.38,1.38,0,0,0,1.579.212c.518-.273.81-.089,1.155.28,1.745,1.865,3.514,3.706,5.261,5.567,1.372,1.459,1.158.928,1.105,2.793a2.007,2.007,0,0,0,1.1,1.824,1.412,1.412,0,0,0,1.627-.175l.491-.465a10.4,10.4,0,0,0,.282-3.9,1.451,1.451,0,0,0-.489-.911c-.747-.764-1.463-1.557-2.215-2.315-.253-.256-.234-.4.026-.62a9.987,9.987,0,0,0,.9-.85c.24-.258.4-.225.633.024.695.762,1.424,1.492,2.116,2.254a2,2,0,0,0,1.625.708c.542-.015,1.088,0,1.629.041a3.229,3.229,0,0,0,1.625-.242l.408-.387a1.763,1.763,0,0,0-1.474-2.881c-.131-.009-.262-.011-.393-.013-.207-.007-.413-.026-.62-.015a1.389,1.389,0,0,1-1.134-.5c-1.618-1.725-3.25-3.435-4.877-5.152-.4-.422-.8-.841-1.2-1.269-.153-.168-.317-.339-.17-.594.642-1.1.26-1.953-.559-2.809q-8.023-8.413-16-16.865a7.71,7.71,0,0,1-.941-1.188,4.485,4.485,0,0,1,7.181-5.314Zm17.793-20.7c-.465.018-.775-.681-1.158-1.061-.437-.437-.845-.9-1.28-1.341-.207-.207-.284-.367-.009-.581.439-.339.769-1.04,1.251-1.022.378.013.734.668,1.1,1.042.079.079.155.162.232.242.373.4.738.8,1.125,1.179.19.188.2.317-.013.491C95.974,656,95.639,656.681,95.157,656.7ZM84.549,706.311c.2-.205.349-.221.553,0q1.094,1.176,2.208,2.33c.186.192.2.343-.02.5-.015.011-.026.026-.042.037l-1.2,1.1c-.566-.349-.9-.939-1.3-1.271-.45-.474-.8-.865-1.177-1.234-.194-.192-.251-.33-.007-.535A13.193,13.193,0,0,0,84.549,706.311Zm-17.6-29.652a7.6,7.6,0,0,0,.358,8.05,20.509,20.509,0,0,0,2.649,2.975q6.7,7.109,13.438,14.19c.507.533.5.533-.015,1.027-1.09,1.035-2.186,2.059-3.263,3.108-.264.258-.408.312-.7.007-5.283-5.6-10.638-11.128-15.849-16.791a12.748,12.748,0,0,1-3.239-9.417,12.969,12.969,0,0,1,2.815-7.79,13.805,13.805,0,0,1,19.119-2.61,14.627,14.627,0,0,1,1.966,1.839q7.849,8.275,15.692,16.555a8,8,0,0,0,12.766-9.579A33.67,33.67,0,0,0,109,674.131q-6.215-6.6-12.477-13.159c-.376-.393-.363-.605.037-.965,1.127-1.018,2.221-2.077,3.313-3.134.245-.238.384-.293.655-.007,5.325,5.637,10.7,11.226,15.972,16.909a12.269,12.269,0,0,1,3.084,7.271,13.675,13.675,0,0,1-12.176,15.087,13.624,13.624,0,0,1-9.73-2.665A13.97,13.97,0,0,1,95.8,691.7l-7.515-7.93c-2.765-2.916-5.519-5.84-8.295-8.745a7.913,7.913,0,0,0-6.069-2.638A7.675,7.675,0,0,0,66.946,676.658Z" transform="translate(-56.799 -641.871)"/></svg>