<svg xmlns="http://www.w3.org/2000/svg" width="238.104" height="60" viewBox="0 0 238.104 60"><defs><style>.a{fill:#fff;}</style></defs><g transform="translate(119.052 30)"><g transform="translate(-119.052 -30)"><path class="a" d="M194.482,30.065a29.81,29.81,0,1,0-32.929,29.647V49.919H156.4V43.252a9.962,9.962,0,0,1-8.275-9.785v-9.42h7.809V12.431a1.912,1.912,0,0,1,1.9-1.9h.34a1.912,1.912,0,0,1,1.9,1.9V24.046h9.649V12.431a1.912,1.912,0,0,1,1.9-1.9h.34a1.912,1.912,0,0,1,1.9,1.9V24.046h7.342v9.42a9.962,9.962,0,0,1-8.275,9.785v6.667h-5.157v9.794A29.813,29.813,0,0,0,194.482,30.065Z" transform="translate(-45.941 -0.087)"/><path class="a" d="M300.574.43a29.778,29.778,0,1,0,29.779,29.778A29.778,29.778,0,0,0,300.574.43Zm.582,49.929a4.659,4.659,0,1,1,4.659-4.659,4.659,4.659,0,0,1-4.659,4.659Zm9.968-10.352a2.621,2.621,0,0,1-3.707-.059,9.328,9.328,0,0,0-13.4,0,2.621,2.621,0,1,1-3.764-3.648,14.571,14.571,0,0,1,20.926,0,2.624,2.624,0,0,1-.057,3.707Zm6.989-6.405a2.621,2.621,0,0,1-3.706-.06,19.061,19.061,0,0,0-27.375,0,2.621,2.621,0,1,1-3.764-3.648,24.3,24.3,0,0,1,34.9,0,2.62,2.62,0,0,1-.059,3.707Zm4.292-5.67a2.6,2.6,0,0,1-1.882-.8,27.777,27.777,0,0,0-39.895,0,2.621,2.621,0,0,1-3.764-3.643,33.018,33.018,0,0,1,47.422,0,2.621,2.621,0,0,1-1.882,4.445Z" transform="translate(-92.249 -0.146)"/><path class="a" d="M116.827,39.711h-7.05v-7.05h-2.625v7.05H100.1v2.625h7.05v7.05h2.625v-7.05h7.05Z" transform="translate(-34.101 -11.126)"/><g transform="translate(156.136 24.646)"><rect class="a" width="2.625" height="16.724" transform="translate(16.724 0) rotate(90)"/><rect class="a" width="2.625" height="16.724" transform="translate(16.724 7.876) rotate(90)"/></g><ellipse class="a" cx="2.92" cy="2.92" rx="2.92" ry="2.92" transform="translate(13.315 32.186)"/><path class="a" d="M58.2,51.334H37.083a1.26,1.26,0,1,0,0,2.519H58.2a1.26,1.26,0,1,0,0-2.519Z" transform="translate(-12.204 -17.487)"/><path class="a" d="M30,0A30,30,0,1,0,60,30,30,30,0,0,0,30,0ZM45.731,42.278H16.119a7.172,7.172,0,1,1,0-14.344H17.99l.1-3.033.69-.227v-9a2.349,2.349,0,1,1,2.194-.047v9.064l.64.21.117,3.033h24a7.172,7.172,0,1,1,0,14.344Z"/></g></g></svg>