<svg xmlns="http://www.w3.org/2000/svg" xmlns:xlink="http://www.w3.org/1999/xlink" width="445.092" height="110.249" viewBox="0 0 445.092 110.249"><defs><style>.a{fill:#f4f4f5;stroke:#707070;}.b,.f,.g,.m{fill:#512f84;}.c,.d,.e,.i{fill:#fff;}.c{font-size:17px;letter-spacing:-0.02em;}.c,.d,.e,.f,.g{font-family:Futura-Medium, Futura;font-weight:500;}.d{font-size:42px;letter-spacing:-0.04em;}.e{font-size:5px;letter-spacing:0.04em;}.f,.i{font-size:9px;}.g{font-size:37px;}.h{fill:#16933a;}.i{font-family:Futura-Bold, Futura;font-weight:700;}.j,.l,.o{fill:none;}.j{stroke:#512f84;}.j,.k,.l{stroke-miterlimit:10;}.k{fill:#3d2982;}.k,.l{stroke:#3d2982;stroke-width:0.25px;}.m{stroke:#f4f4f5;stroke-width:0.3px;}.n{stroke:none;}.p{filter:url(#a);}</style><filter id="a" x="3.092" y="3" width="103" height="17" filterUnits="userSpaceOnUse"><feOffset dy="3" input="SourceAlpha"/><feGaussianBlur stdDeviation="1" result="b"/><feFlood flood-opacity="0.404"/><feComposite operator="in" in2="b"/><feComposite in="SourceGraphic"/></filter></defs><g transform="translate(-1682.908 -1284)"><g class="a" transform="translate(1789 1299)"><rect class="n" width="339" height="95"/><rect class="o" x="0.5" y="0.5" width="338" height="94"/></g><path class="b" d="M108.924,94.946H0V0H108.917V0h.006V.015l22.4,47.771-22.4,47.16Z" transform="translate(1682.908 1299.302)"/><g transform="translate(1704.154 1318.436)"><text class="c" transform="translate(0 36.619)"><tspan x="0" y="0">$</tspan></text><text class="d" transform="translate(12.846 43.564)"><tspan x="0" y="0">299</tspan></text><text class="e" transform="translate(78.846 44.564)"><tspan x="0" y="0"></tspan><tspan x="0" y="17"></tspan></text></g><g transform="translate(6562 68)"><text class="f" transform="translate(-4679 1303)"><tspan x="0" y="0">Megas.</tspan></text><text class="f" transform="translate(-4729 1303)"><tspan x="0" y="0">Hasta </tspan></text><text class="g" transform="translate(-4701 1303)"><tspan x="0" y="0">5</tspan></text></g><g transform="translate(6570 68)"><text class="f" transform="translate(-4576 1303)"><tspan x="0" y="0">GB</tspan></text><text class="g" transform="translate(-4622 1303)"><tspan x="0" y="0">80</tspan></text></g><g transform="translate(1682.989 1284)"><rect class="h" width="121" height="19" transform="translate(0.011)"/><g transform="translate(6.181 2.649)"><g class="p" transform="matrix(1, 0, 0, 1, -6.26, -2.65)"><text class="i" transform="translate(6.09 12)"><tspan x="0" y="0">RECARGA MENSUAL</tspan></text></g></g></g><g transform="translate(6566.629 68)"><text class="f" transform="translate(-4701 1256)"><tspan x="0" y="0">Velocidad</tspan></text><g transform="translate(-4725.629 1245.333)"><path class="b" d="M1184.42,234.019a.333.333,0,0,0,.333-.333v-1.332a.333.333,0,1,0-.666,0v1.332A.333.333,0,0,0,1184.42,234.019Z" transform="translate(-1176.43 -231.023)"/><path class="b" d="M5.114.14h0A.333.333,0,0,0,4.649.063h0L2.158,1.85a1.351,1.351,0,1,0,.42.518L5.036.6A.333.333,0,0,0,5.114.14ZM1.746,3.474a.664.664,0,1,1-.1-1.158.659.659,0,0,1,.2.134.233.233,0,0,0,.013.029.332.332,0,0,0,.07.071A.666.666,0,0,1,1.746,3.474Z" transform="matrix(0.588, -0.809, 0.809, 0.588, 4.81, 7.711)"/><path class="b" d="M1203.988,257.231a.333.333,0,0,0,.333.333h1.332a.333.333,0,0,0,0-.666h-1.332A.333.333,0,0,0,1203.988,257.231Z" transform="translate(-1191.005 -249.241)"/><path class="b" d="M1160.876,256.9h-1.332a.333.333,0,1,0,0,.666h1.332a.333.333,0,0,0,0-.666Z" transform="translate(-1158.213 -249.241)"/><path class="b" d="M1172.521,235.8a.333.333,0,0,0-.574.338l.566.961a.333.333,0,1,0,.574-.338Z" transform="translate(-1167.506 -233.666)"/><path class="b" d="M1201.564,245.409a.333.333,0,0,0,.453.126l.982-.555a.333.333,0,0,0-.327-.58l-.983.555A.333.333,0,0,0,1201.564,245.409Z" transform="translate(-1189.198 -240.057)"/><path class="b" d="M1164.461,244.954l-.982-.555a.333.333,0,0,0-.327.58l.983.555a.333.333,0,1,0,.327-.58Z" transform="translate(-1160.974 -240.056)"/><path class="b" d="M1195.22,235.678h0a.333.333,0,0,0-.456.117h0l-.566.961a.333.333,0,0,0,.574.339l.566-.961A.332.332,0,0,0,1195.22,235.678Z" transform="translate(-1183.8 -233.666)"/><path class="b" d="M1169.1,230.566a8.023,8.023,0,0,0-13.622,5.7v1.786a.9.9,0,0,0,.9.888h14.181a.9.9,0,0,0,.9-.888v-1.942A7.69,7.69,0,0,0,1169.1,230.566Zm1.691,7.49a.229.229,0,0,1-.233.222h-14.181a.228.228,0,0,1-.233-.222v-1.787a7.358,7.358,0,0,1,12.492-5.227,7.031,7.031,0,0,1,2.155,5.071v1.942Z" transform="translate(-1155.48 -228.29)"/></g></g><g transform="translate(6565 68)"><text class="f" transform="translate(-4595 1256)"><tspan x="0" y="0">Capacidad</tspan></text><g transform="translate(-4625 1245.232)"><rect class="j" width="10" height="19" transform="translate(19 0.768) rotate(90)"/><rect class="b" width="6.306" height="2.02" transform="translate(4.382 2.366) rotate(90)"/><rect class="b" width="6.306" height="2.02" transform="translate(6.823 2.366) rotate(90)"/><rect class="b" width="6.306" height="2.02" transform="translate(9.376 2.366) rotate(90)"/><rect class="k" width="6.306" height="2.02" transform="translate(11.928 2.366) rotate(90)"/><rect class="l" width="6.306" height="2.02" transform="translate(14.48 2.366) rotate(90)"/><rect class="l" width="6.306" height="2.02" transform="translate(16.927 2.366) rotate(90)"/></g></g><g transform="translate(6565.373 68)"><text class="f" transform="translate(-4493 1256)"><tspan x="0" y="0">Vigencia</tspan></text><g transform="translate(-4513.373 1243.233)"><path class="m" d="M347.817,373.8h-.878c-.243,0-.439.146-.439.327s.2.327.439.327h.878c.243,0,.439-.146.439-.327S348.06,373.8,347.817,373.8Z" transform="translate(-336.797 -364.856)"/><path class="m" d="M347.817,373.8h-.878c-.243,0-.439.146-.439.327s.2.327.439.327h.878c.243,0,.439-.146.439-.327S348.06,373.8,347.817,373.8Z" transform="translate(-340.325 -364.856)"/><path class="m" d="M347.817,373.8h-.878c-.243,0-.439.146-.439.327s.2.327.439.327h.878c.243,0,.439-.146.439-.327S348.06,373.8,347.817,373.8Z" transform="translate(-343.853 -364.856)"/><path class="m" d="M347.817,373.8h-.878c-.243,0-.439.146-.439.327s.2.327.439.327h.878c.243,0,.439-.146.439-.327S348.06,373.8,347.817,373.8Z" transform="translate(-340.325 -363.092)"/><path class="m" d="M347.817,373.8h-.878c-.243,0-.439.146-.439.327s.2.327.439.327h.878c.243,0,.439-.146.439-.327S348.06,373.8,347.817,373.8Z" transform="translate(-343.853 -363.092)"/><path class="m" d="M347.817,373.8h-.878c-.243,0-.439.146-.439.327s.2.327.439.327h.878c.243,0,.439-.146.439-.327S348.06,373.8,347.817,373.8Z" transform="translate(-336.797 -366.62)"/><path class="m" d="M347.817,373.8h-.878c-.243,0-.439.146-.439.327s.2.327.439.327h.878c.243,0,.439-.146.439-.327S348.06,373.8,347.817,373.8Z" transform="translate(-340.325 -366.62)"/><path class="m" d="M347.817,373.8h-.878c-.243,0-.439.146-.439.327s.2.327.439.327h.878c.243,0,.439-.146.439-.327S348.06,373.8,347.817,373.8Z" transform="translate(-343.853 -366.62)"/><path class="m" d="M347.817,373.8h-.878c-.243,0-.439.146-.439.327s.2.327.439.327h.878c.243,0,.439-.146.439-.327S348.06,373.8,347.817,373.8Z" transform="translate(-336.797 -368.384)"/><path class="m" d="M347.817,373.8h-.878c-.243,0-.439.146-.439.327s.2.327.439.327h.878c.243,0,.439-.146.439-.327S348.06,373.8,347.817,373.8Z" transform="translate(-340.325 -368.384)"/><path class="m" d="M347.817,373.8h-.878c-.243,0-.439.146-.439.327s.2.327.439.327h.878c.243,0,.439-.146.439-.327S348.06,373.8,347.817,373.8Z" transform="translate(-343.853 -368.384)"/><path class="m" d="M21.357,25.03h7.311a.438.438,0,0,0,.439-.439V13.146a.438.438,0,0,0-.439-.439H26.444v-.468a.439.439,0,1,0-.878,0v.468H23.81v-.468a.439.439,0,0,0-.878,0v.468H21.176v-.468a.439.439,0,0,0-.878,0v.468H18.542v-.468a.439.439,0,0,0-.878,0v.468H15.439a.438.438,0,0,0-.439.439V24.591a.438.438,0,0,0,.439.439H22.75M17.663,13.585v.439a.439.439,0,1,0,.878,0v-.439H20.3v.439a.439.439,0,1,0,.878,0v-.439h1.756v.439a.439.439,0,1,0,.878,0v-.439h1.756v.439a.439.439,0,1,0,.878,0v-.439H28.23v1.756H15.878V13.585Zm4.645,10.566h-6.43V16.22H28.23v7.932Z" transform="translate(-15 -11.8)"/><g transform="translate(9.601 10.036)"><path class="m" d="M344.915,295.83l-1.244-1.244a.338.338,0,1,0-.457.457l1.241,1.241a.338.338,0,1,0,.46-.454Z" transform="translate(-343.057 -294.429)"/><path class="m" d="M343.643,296.312l1.241-1.241a.338.338,0,1,0-.457-.457l-1.241,1.241a.338.338,0,1,0,.457.457Z" transform="translate(-343.029 -294.457)"/></g></g></g><g transform="translate(6566 68)"><g transform="translate(94)"><text class="g" transform="translate(-4574 1303)"><tspan x="-45.672" y="0">30</tspan></text></g><text class="f" transform="translate(-4477 1303)"><tspan x="0" y="0">Días</tspan></text></g></g></svg>