<svg xmlns="http://www.w3.org/2000/svg" width="99.97" height="53.067" viewBox="0 0 99.97 53.067"><defs><style>.a,.d{fill:none;stroke:#fff;}.a{stroke-miterlimit:10;stroke-width:5px;}.b{fill:#512f84;}.c{fill:#fff;}</style></defs><g transform="translate(-606.5 -1611.5)"><path class="a" d="M347.154,161.6a23.852,23.852,0,1,0,4.8,17.728,21.988,21.988,0,0,1,.058-5.822" transform="translate(304.505 1461.615)"/><path class="a" d="M332.475,194.007a23.848,23.848,0,1,0-7.561-20.721,22,22,0,0,1-.058,5.822" transform="translate(331.601 1461.836)"/><g transform="translate(636.036 1628)"><rect class="b" width="40" height="21"/><g transform="translate(1.087 1.711)"><g transform="translate(0 0)"><rect class="c" width="4.545" height="14.244" transform="translate(1.454 1.677)"/><rect class="c" width="4.545" height="14.244" transform="translate(7.479 1.677)"/><rect class="c" width="4.545" height="14.244" transform="translate(13.503 1.677)"/><rect class="c" width="4.545" height="14.244" transform="translate(19.528 1.677)"/><rect class="c" width="4.545" height="14.244" transform="translate(25.552 1.677)"/><path class="d" d="M0,0H37.245V17.985H0Z" transform="translate(-1.123 0)"/></g></g></g></g></svg>