<svg xmlns="http://www.w3.org/2000/svg" width="27.362" height="22.549" viewBox="0 0 27.362 22.549"><defs><style>.a,.b{isolation:isolate;}.b{mix-blend-mode:multiply;}.c{fill:#fff;}</style></defs><g class="a" transform="translate(-45.096 -65.619)"><g transform="translate(45.096 65.619)"><g transform="translate(9.908 15.003)"><g class="b" transform="translate(0 0)"><circle class="c" cx="3.105" cy="3.105" r="3.105" transform="matrix(0.246, -0.969, 0.969, 0.246, 0, 6.021)"/></g></g><g transform="translate(0 0)"><g class="b"><path class="c" d="M71.078,73.475a1.376,1.376,0,0,1-.976-.4,16.016,16.016,0,0,0-22.65,0A1.38,1.38,0,0,1,45.5,71.119a18.776,18.776,0,0,1,26.554,0,1.38,1.38,0,0,1-.976,2.356Z" transform="translate(-45.096 -65.619)"/></g></g><g transform="translate(3.578 5.061)"><g class="b"><path class="c" d="M105.659,131.02a1.376,1.376,0,0,1-.976-.4,10.955,10.955,0,0,0-15.493,0,1.38,1.38,0,0,1-1.952-1.952,13.716,13.716,0,0,1,19.4,0,1.38,1.38,0,0,1-.976,2.356Z" transform="translate(-86.834 -124.646)"/></g></g><g transform="translate(7.177 10.15)"><g class="b"><path class="c" d="M140.437,188.891a1.376,1.376,0,0,1-.976-.4,5.866,5.866,0,0,0-8.3,0,1.38,1.38,0,1,1-1.952-1.952,8.626,8.626,0,0,1,12.2,0,1.38,1.38,0,0,1-.976,2.356Z" transform="translate(-128.809 -184.008)"/></g></g></g></g></svg>