<svg xmlns="http://www.w3.org/2000/svg" width="65.375" height="65.372" viewBox="0 0 65.375 65.372"><defs><style>.a{fill:#fff;}</style></defs><path class="a" d="M739.013,60.447a4.076,4.076,0,0,0,.338-5.342L733.662,60.8A4.075,4.075,0,0,0,739.013,60.447Z" transform="translate(-706.71 -27.647)"/><path class="a" d="M757.025,45.606A32.686,32.686,0,1,0,789.713,78.29,32.686,32.686,0,0,0,757.025,45.606Zm11.924,37.87a1.912,1.912,0,0,1,1.873-1.821,1.866,1.866,0,0,1,2.145,1.642,2.549,2.549,0,0,1,.023.4,11.915,11.915,0,0,1-3.48,7.727,11.5,11.5,0,0,1-8.079,3.423,1.934,1.934,0,0,1-1.812-2.214c.153-1.061.592-1.677,1.532-1.821.026,0,.269-.017.295-.02h.017a8.095,8.095,0,0,0,7.487-7.313ZM761.717,54.2l5.192,5.16L756.647,69.685l-5.192-5.163ZM737.641,88.8l-5.189-5.16,10.262-10.32,5.189,5.16Zm18.069-1.02-3.888-4.541c-1.1-1.1-1.627-3.385-.552-4.46l.02-.017c-.1-.081-.205-.165-.3-.254L738.8,66.352h0l-.02-.02a4.061,4.061,0,0,1,5.744-5.744c.029.029.055.064.084.092l12.019,11.982a4.148,4.148,0,0,1,.35.4l0,0c1.075-1.075,3.359-.549,4.46.552l4.541,3.891-4.905,4.905.327.35-.075.15,1.48,1.48a.545.545,0,1,1-.217.9.54.54,0,0,1-.136-.532l-1.492-1.492-.139.069-.353-.324Zm19.977,10.039a19.986,19.986,0,0,1-14.251,5.767l-.925-.006a1.853,1.853,0,0,1-1.523-2.2c.159-1.1.94-1.934,1.732-1.847l.734,0a16.153,16.153,0,0,0,16.1-15.936l0-.76c-.084-.821.752-1.613,1.856-1.763a1.88,1.88,0,0,1,2.191,1.6l0,.948A20,20,0,0,1,775.687,97.814Z" transform="translate(-724.338 -45.606)"/></svg>