<svg xmlns="http://www.w3.org/2000/svg" width="64.317" height="64.317" viewBox="0 0 64.317 64.317"><defs><style>.a{fill:#fff;}</style></defs><path class="a" d="M535.98,45.932a32.159,32.159,0,1,0,32.16,32.157A32.158,32.158,0,0,0,535.98,45.932Zm9.133,57.775H526.85a4.423,4.423,0,1,1,0-8.846h7.908l.057-1.7.462-.152V86.987a1.572,1.572,0,1,1,1.466-.032v6.067l.43.141.063,1.7h7.877a4.423,4.423,0,1,1,0,8.846ZM535.98,62.3a8.634,8.634,0,0,0-6.1,14.738,1.731,1.731,0,1,1-2.447,2.45,12.1,12.1,0,1,1,17.1,0,1.731,1.731,0,0,1-2.447-2.45A8.632,8.632,0,0,0,535.98,62.3Zm4.879,8.4a4.878,4.878,0,1,1-4.879-4.879A4.879,4.879,0,0,1,540.859,70.7Zm9.113,15.352a1.732,1.732,0,0,1-2.45-2.45,16.331,16.331,0,1,0-23.082,0,1.732,1.732,0,1,1-2.45,2.45,19.8,19.8,0,1,1,27.981,0Z" transform="translate(-503.823 -45.932)"/></svg>