<svg xmlns="http://www.w3.org/2000/svg" width="30.443" height="28.579" viewBox="0 0 30.443 28.579"><defs><style>.a{fill:#fff;stroke:#512f84;stroke-width:0.5px;}</style></defs><g transform="translate(-14.75 -11.55)"><path class="a" d="M349.3,373.8h-1.864c-.516,0-.932.31-.932.693s.416.693.932.693H349.3c.516,0,.932-.31.932-.693S349.811,373.8,349.3,373.8Z" transform="translate(-310.907 -343.017)"/><path class="a" d="M349.3,373.8h-1.864c-.516,0-.932.31-.932.693s.416.693.932.693H349.3c.516,0,.932-.31.932-.693S349.811,373.8,349.3,373.8Z" transform="translate(-318.394 -343.017)"/><path class="a" d="M349.3,373.8h-1.864c-.516,0-.932.31-.932.693s.416.693.932.693H349.3c.516,0,.932-.31.932-.693S349.811,373.8,349.3,373.8Z" transform="translate(-325.882 -343.017)"/><path class="a" d="M349.3,373.8h-1.864c-.516,0-.932.31-.932.693s.416.693.932.693H349.3c.516,0,.932-.31.932-.693S349.811,373.8,349.3,373.8Z" transform="translate(-318.394 -339.273)"/><path class="a" d="M349.3,373.8h-1.864c-.516,0-.932.31-.932.693s.416.693.932.693H349.3c.516,0,.932-.31.932-.693S349.811,373.8,349.3,373.8Z" transform="translate(-325.882 -339.273)"/><path class="a" d="M349.3,373.8h-1.864c-.516,0-.932.31-.932.693s.416.693.932.693H349.3c.516,0,.932-.31.932-.693S349.811,373.8,349.3,373.8Z" transform="translate(-310.907 -346.761)"/><path class="a" d="M349.3,373.8h-1.864c-.516,0-.932.31-.932.693s.416.693.932.693H349.3c.516,0,.932-.31.932-.693S349.811,373.8,349.3,373.8Z" transform="translate(-318.394 -346.761)"/><path class="a" d="M349.3,373.8h-1.864c-.516,0-.932.31-.932.693s.416.693.932.693H349.3c.516,0,.932-.31.932-.693S349.811,373.8,349.3,373.8Z" transform="translate(-325.882 -346.761)"/><path class="a" d="M349.3,373.8h-1.864c-.516,0-.932.31-.932.693s.416.693.932.693H349.3c.516,0,.932-.31.932-.693S349.811,373.8,349.3,373.8Z" transform="translate(-310.907 -350.505)"/><path class="a" d="M349.3,373.8h-1.864c-.516,0-.932.31-.932.693s.416.693.932.693H349.3c.516,0,.932-.31.932-.693S349.811,373.8,349.3,373.8Z" transform="translate(-318.394 -350.505)"/><path class="a" d="M349.3,373.8h-1.864c-.516,0-.932.31-.932.693s.416.693.932.693H349.3c.516,0,.932-.31.932-.693S349.811,373.8,349.3,373.8Z" transform="translate(-325.882 -350.505)"/><path class="a" d="M28.493,39.879H44.011a.931.931,0,0,0,.932-.932V14.658a.931.931,0,0,0-.932-.932H39.29v-.994a.932.932,0,1,0-1.864,0v.994H33.7v-.994a.932.932,0,1,0-1.864,0v.994H28.108v-.994a.932.932,0,1,0-1.864,0v.994H22.517v-.994a.932.932,0,1,0-1.864,0v.994H15.932a.931.931,0,0,0-.932.932v24.29a.931.931,0,0,0,.932.932H31.45m-10.8-24.29v.932a.932.932,0,1,0,1.864,0v-.932h3.727v.932a.932.932,0,1,0,1.864,0v-.932h3.727v.932a.932.932,0,1,0,1.864,0v-.932h3.727v.932a.932.932,0,1,0,1.864,0v-.932h3.789v3.727H16.864V15.589Zm9.859,22.426H16.864V21.18H43.079V38.015Z" transform="translate(0)"/><g transform="translate(35.378 33.101)"><path class="a" d="M347,297.4l-2.64-2.64a.718.718,0,1,0-.969.969l2.634,2.634A.717.717,0,1,0,347,297.4Z" transform="translate(-343.056 -294.429)"/><path class="a" d="M344.331,298.393l2.634-2.634a.718.718,0,1,0-.969-.969l-2.634,2.634a.718.718,0,1,0,.969.969Z" transform="translate(-343.029 -294.456)"/></g></g></svg>