<svg xmlns="http://www.w3.org/2000/svg" width="85.991" height="66.137" viewBox="0 0 85.991 66.137"><defs><style>.a,.b{fill:#fff;stroke:#512f84;}.a{stroke-width:3px;}.b{stroke-width:4px;}.c{fill:#512f84;font-size:29px;font-family:FrutigerLTStd-Black, Frutiger LT Std;font-weight:800;}.d{stroke:none;}.e{fill:none;}</style></defs><g transform="translate(-1096.5 -1994.936)"><g transform="translate(1098 1996.436)"><g transform="translate(34.284 48.799)"><path class="a" d="M216.709,358.88a7.169,7.169,0,1,0,7.195,7.168A7.189,7.189,0,0,0,216.709,358.88Z" transform="translate(-209.516 -358.88)"/></g><g transform="translate(22.55 31.773)"><g transform="translate(0 0)"><path class="a" d="M174.286,262.093a24.849,24.849,0,0,0-35.058-.047,4.841,4.841,0,0,0,6.85,6.843,15.127,15.127,0,0,1,21.341.027,4.84,4.84,0,0,0,6.867-6.824Z" transform="translate(-137.807 -254.833)"/></g></g><g transform="translate(0 0)"><g transform="translate(0 0)"><path class="a" d="M81.575,77.226a56.822,56.822,0,0,0-80.156-.039,4.84,4.84,0,0,0,6.855,6.835,47.1,47.1,0,0,1,66.44.033,4.84,4.84,0,1,0,6.861-6.83Z" transform="translate(0 -60.665)"/></g></g><g transform="translate(11.557 16.288)"><g transform="translate(0 0)"><path class="a" d="M129.087,171.991a40.43,40.43,0,0,0-57.035-.04A4.841,4.841,0,0,0,78.9,178.79a30.7,30.7,0,0,1,43.319.031,4.841,4.841,0,1,0,6.863-6.83Z" transform="translate(-70.628 -160.2)"/></g></g></g><g transform="translate(1145.005 2024.814)"><g transform="translate(-1.099 -0.831)"><g class="b" transform="translate(0.094 0.016)"><ellipse class="d" cx="15.5" cy="15" rx="15.5" ry="15"/><ellipse class="e" cx="15.5" cy="15" rx="13.5" ry="13"/></g></g><text class="c" transform="translate(5.995 22.186)"><tspan x="0" y="0">+</tspan></text></g></g></svg>