<svg xmlns="http://www.w3.org/2000/svg" width="44" height="29.334" viewBox="0 0 44 29.334"><defs><style>.a{fill:#fff;}</style></defs><g transform="translate(-1503 -955.468)"><g transform="translate(347.52 727.178)"><path class="a" d="M1185,237.522a.916.916,0,0,0,.916-.917v-3.667a.916.916,0,1,0-1.833,0v3.667A.917.917,0,0,0,1185,237.522Z" transform="translate(-7.524 -0.982)"/><path class="a" d="M1195.039,248.035l0,0a.917.917,0,0,0-1.279-.21h0l-6.859,4.922a3.719,3.719,0,1,0,1.157,1.427l6.769-4.858A.917.917,0,0,0,1195.039,248.035Zm-9.276,9.18a1.835,1.835,0,1,1,.259-2.82.694.694,0,0,0,.035.079.916.916,0,0,0,.194.195A1.833,1.833,0,0,1,1185.763,257.215Z" transform="translate(-6.7 -5.092)"/><path class="a" d="M1203.988,257.815a.916.916,0,0,0,.916.917h3.667a.917.917,0,0,0,0-1.834H1204.9A.916.916,0,0,0,1203.988,257.815Z" transform="translate(-12.758 -7.524)"/><path class="a" d="M1163.794,256.9h-3.667a.917.917,0,1,0,0,1.834h3.667a.917.917,0,0,0,0-1.834Z" transform="translate(-0.981 -7.524)"/><path class="a" d="M1173.608,236.082a.917.917,0,0,0-1.579.932l1.559,2.647a.917.917,0,1,0,1.579-.932Z" transform="translate(-4.319 -1.931)"/><path class="a" d="M1201.64,247.252a.917.917,0,0,0,1.248.348l2.7-1.527a.917.917,0,0,0-.9-1.6l-2.7,1.528A.916.916,0,0,0,1201.64,247.252Z" transform="translate(-12.109 -4.226)"/><path class="a" d="M1167.055,246l-2.7-1.527a.917.917,0,1,0-.9,1.6l2.706,1.527a.917.917,0,0,0,.9-1.6Z" transform="translate(-1.973 -4.226)"/><path class="a" d="M1197.1,235.761l0,0a.918.918,0,0,0-1.256.324h0l-1.559,2.646a.918.918,0,0,0,1.581.935l1.558-2.647A.916.916,0,0,0,1197.1,235.761Z" transform="translate(-10.171 -1.931)"/><path class="a" d="M1192.991,234.556a22.094,22.094,0,0,0-37.511,15.705v4.918a2.464,2.464,0,0,0,2.475,2.445H1197a2.464,2.464,0,0,0,2.476-2.445v-5.347A21.176,21.176,0,0,0,1192.991,234.556Zm4.656,20.625a.629.629,0,0,1-.642.612h-39.05a.629.629,0,0,1-.642-.612v-4.919a20.261,20.261,0,0,1,34.4-14.392,19.359,19.359,0,0,1,5.934,13.963v5.348Z" transform="translate(0 0)"/></g></g></svg>