<svg xmlns="http://www.w3.org/2000/svg" width="97.702" height="64.4" viewBox="0 0 97.702 64.4"><defs><style>.a{fill:none;stroke:#fff;stroke-linecap:round;stroke-linejoin:round;stroke-width:3px;}</style></defs><g transform="translate(1.51 1.5)"><g transform="translate(0 0)"><path class="a" d="M276.608,305.727c-2.835-1.351-9.693,1.357-10.524,4.575-1.2,4.7-4.77,4.906-8.512,5.534-3.784.655-6.977.052-9.2-3.218-3.551-5.18-6.389-10.56-3.754-17.166.5-1.273,1.637-3.656-.329-4.043-5.8-1.12-6.64-6.435-9.377-10.116-1.78-2.391-4.138-4.119-6.625-2.349-3.763,2.674-4.623.3-6.439-2.224-2.456-3.43-5.767-6.851-10.434-4.636-4.24,2.008-7.93,1.064-11.973.065-4.211-1.045-7.852-3.763-12.373-3.844-3.78-.065-5.095,1.357-2.7,4.529,4.41,5.809,5.187,14.132,12.482,17.968a2.87,2.87,0,0,1,1.4,2.065c.036,5.767,5.637,5.52,7.71,9.037.41-.366.81-.733,1.221-1.1q-5.321-8.993-10.658-17.977l.465.056.3-.366c9.167,5.218,14.226,14.438,21.145,21.838a3.116,3.116,0,0,1,.965,2.358c-2.383,7.193,3.853,8.344,7.75,10.581,4.72,2.693,9.982,4.427,14.967,6.642,2.052.9,4.512,2.106,6.328,1.116,5.4-2.948,8.554.482,12.928,4.651-1.8-5.566,8.581-4.548,2.182-11.785,9.486,2.467,11.873-3.034,14-9.006C278.082,307.419,278.147,306.462,276.608,305.727Z" transform="translate(-183.158 -268.302)"/></g></g></svg>