<svg xmlns="http://www.w3.org/2000/svg" width="494" height="224" viewBox="0 0 494 224"><defs><style>.a{fill:#bdd530;}.b,.d,.f{fill:#512f84;}.b{font-size:16px;}.b,.h{font-family:FrutigerLTStd-Roman, Frutiger LT Std;}.b,.f,.g,.h{letter-spacing:0.01em;}.c,.g{font-family:FrutigerLTStd-Bold, Frutiger LT Std;font-weight:700;}.e{fill:#fff;}.f{font-size:20px;font-family:FrutigerLTStd-Black, Frutiger LT Std;font-weight:800;}.g,.h{fill:#494c4f;}.g{font-size:19px;}.h{font-size:14px;}</style></defs><g transform="translate(-143 -804)"><g transform="translate(-323 -157)"><g transform="translate(-54 89)"><path class="a" d="M0,0H377a10,10,0,0,1,10,10V62a0,0,0,0,1,0,0H10A10,10,0,0,1,0,52V0A0,0,0,0,1,0,0Z" transform="translate(624 1034)"/><text class="b" transform="translate(738 1048)"><tspan x="0" y="12">Haz las actividades que quieras sin </tspan><tspan x="0" y="32">consumir </tspan><tspan class="c" y="32">GB de tu paquete</tspan><tspan y="32">*</tspan></text></g><g transform="translate(299 28)"><ellipse class="d" cx="111.5" cy="112" rx="111.5" ry="112" transform="translate(167 933)"/><ellipse class="e" cx="101.5" cy="100" rx="101.5" ry="100" transform="translate(187 935)"/><text class="f" transform="translate(284 1046)"><tspan x="-70.46" y="0">NAVEGACIÓN</tspan><tspan x="-57.94" y="21">NOCTURNA</tspan></text><text class="g" transform="translate(284 995)"><tspan x="-68.809" y="0">Contrata ahora</tspan><tspan x="-57.627" y="22">y disfruta de</tspan></text><text class="h" transform="translate(208 1078)"><tspan x="3.281" y="11">De 00:00 a 06:00 hrs.</tspan></text></g></g></g></svg>