<svg xmlns="http://www.w3.org/2000/svg" xmlns:xlink="http://www.w3.org/1999/xlink" width="190" height="190" viewBox="0 0 190 190"><defs><style>.a{fill:url(#a);}.b{fill:#fff;font-size:16px;letter-spacing:-0.05em;}.b,.d{font-family:FrutigerLTStd-Bold, Frutiger LT Std;font-weight:700;}.c{fill:#bdd530;}.c,.e{font-family:FrutigerLTStd-Black, Frutiger LT Std;font-weight:800;}.f{filter:url(#b);}</style><linearGradient id="a" x1="0.5" x2="0.5" y2="1" gradientUnits="objectBoundingBox"><stop offset="0" stop-color="#613692"/><stop offset="1" stop-color="#492c7c"/></linearGradient><filter id="b" x="0" y="0" width="190" height="190" filterUnits="userSpaceOnUse"><feOffset dy="2" input="SourceAlpha"/><feGaussianBlur stdDeviation="5" result="c"/><feFlood flood-opacity="0.302"/><feComposite operator="in" in2="c"/><feComposite in="SourceGraphic"/></filter></defs><g transform="translate(-274 -1077)"><g class="f" transform="matrix(1, 0, 0, 1, 274, 1077)"><path class="a" d="M1720-60a80,80,0,0,1,80-80,80,80,0,0,1,80,80,79.764,79.764,0,0,1-23.881,57.014l5.459,15.627a1,1,0,0,1-1.139,1.31l-21.2-4.219A79.636,79.636,0,0,1,1800,20,80,80,0,0,1,1720-60Z" transform="translate(-1705 153)"/></g><text class="b" transform="translate(369 1176)"><tspan x="-58.392" y="0">continuamos con</tspan><tspan class="c"><tspan x="-63.208" y="20">suscripción baja</tspan><tspan class="d" y="20">!</tspan></tspan></text><text class="b" transform="translate(369 1156)"><tspan x="-72.136" y="0">¡En </tspan><tspan class="e" y="0">ON Inalámbrico</tspan></text></g></svg>