<svg xmlns="http://www.w3.org/2000/svg" width="71.034" height="71" viewBox="0 0 71.034 71"><defs><style>.a{fill:#fff;}</style></defs><g transform="translate(-0.001 -0.125)"><path class="a" d="M35.519.125A35.781,35.781,0,0,0,8.173,13.035L5.51,10.414a1.932,1.932,0,0,0-2.122-.5,1.92,1.92,0,0,0-1.373,1.664l-2,13.729C-.207,27,1.743,27.961,2.39,27.637l13.729-1.955a1.97,1.97,0,0,0,1.664-1.373,2.1,2.1,0,0,0-.5-2.163l-3.162-3.162A27.19,27.19,0,0,1,62.7,35.542v.083c0,.529-.017,1.058-.05,1.583A2.082,2.082,0,0,0,65.028,39.4l4.193-.614A2.079,2.079,0,0,0,71,36.8c.013-.394.02-.787.02-1.173A35.611,35.611,0,0,0,35.519.125Z"/><path class="a" d="M68.755,237.524,55.026,239.48a1.97,1.97,0,0,0-1.664,1.373,2.1,2.1,0,0,0,.5,2.163l3.328,3.328A27.172,27.172,0,0,1,8.446,229.953c.014-.271-.034-.853.058-1.961A2.083,2.083,0,0,0,6.14,225.76l-4.192.59A2.08,2.08,0,0,0,.16,228.314c-.052,1.159-.029,2.092-.034,2.512A35.483,35.483,0,0,0,63.18,252.293l2.454,2.454a1.966,1.966,0,0,0,2.122.5,1.92,1.92,0,0,0,1.373-1.664l2-13.728A2.117,2.117,0,0,0,68.755,237.524Z" transform="translate(-0.107 -194.328)"/></g></svg>