<svg xmlns="http://www.w3.org/2000/svg" width="81.79" height="54.528" viewBox="0 0 81.79 54.528"><defs><style>.a{fill:#fff;}</style></defs><g transform="translate(-2 2)"><g transform="translate(2 -2)"><path class="a" d="M1185.792,242.246a1.7,1.7,0,0,0,1.7-1.7v-6.816a1.7,1.7,0,1,0-3.407,0v6.816A1.7,1.7,0,0,0,1185.792,242.246Z" transform="translate(-1144.896 -226.909)"/><path class="a" d="M1207.135,248.365l0-.005a1.7,1.7,0,0,0-2.379-.391h0l-12.75,9.15a6.915,6.915,0,1,0,2.15,2.652l12.584-9.031A1.706,1.706,0,0,0,1207.135,248.365Zm-17.243,17.064a3.4,3.4,0,1,1-.52-5.929,3.372,3.372,0,0,1,1,.688,1.22,1.22,0,0,0,.065.147,1.7,1.7,0,0,0,.361.362A3.408,3.408,0,0,1,1189.891,265.43Z" transform="translate(-1146.055 -221.127)"/><path class="a" d="M1203.988,258.6a1.7,1.7,0,0,0,1.7,1.7h6.817a1.7,1.7,0,0,0,0-3.408h-6.817A1.7,1.7,0,0,0,1203.988,258.6Z" transform="translate(-1137.533 -217.706)"/><path class="a" d="M1167.731,256.9h-6.816a1.7,1.7,0,1,0,0,3.408h6.816a1.7,1.7,0,0,0,0-3.408Z" transform="translate(-1154.1 -217.706)"/><path class="a" d="M1175.074,236.469a1.7,1.7,0,0,0-2.936,1.732l2.9,4.92a1.7,1.7,0,1,0,2.936-1.732Z" transform="translate(-1149.405 -225.574)"/><path class="a" d="M1201.742,249.738a1.7,1.7,0,0,0,2.321.647l5.028-2.839a1.7,1.7,0,0,0-1.675-2.969l-5.028,2.84A1.7,1.7,0,0,0,1201.742,249.738Z" transform="translate(-1138.446 -222.345)"/><path class="a" d="M1170.553,247.415l-5.028-2.839a1.7,1.7,0,1,0-1.675,2.969l5.029,2.839a1.7,1.7,0,0,0,1.674-2.969Z" transform="translate(-1152.704 -222.346)"/><path class="a" d="M1199.626,235.872l-.007-.005a1.706,1.706,0,0,0-2.334.6v0l-2.9,4.918a1.707,1.707,0,0,0,2.938,1.737l2.9-4.92A1.7,1.7,0,0,0,1199.626,235.872Z" transform="translate(-1141.174 -225.574)"/><path class="a" d="M1225.208,239.938a41.069,41.069,0,0,0-69.728,29.194v9.142a4.58,4.58,0,0,0,4.6,4.544h72.588a4.581,4.581,0,0,0,4.6-4.544v-9.939A39.363,39.363,0,0,0,1225.208,239.938Zm8.654,38.339a1.169,1.169,0,0,1-1.193,1.137H1160.08a1.169,1.169,0,0,1-1.193-1.137v-9.145a37.663,37.663,0,0,1,63.944-26.753,35.987,35.987,0,0,1,11.031,25.956v9.942Z" transform="translate(-1155.48 -228.29)"/></g></g></svg>