<svg xmlns="http://www.w3.org/2000/svg" width="114.737" height="52.16" viewBox="0 0 114.737 52.16"><defs><style>.a{fill:#fff;}</style></defs><path class="a" d="M161.781,151.681h38a1.933,1.933,0,0,0,1.524-3.121l-30.557-39.217a1.932,1.932,0,0,0-3.049,0l-5.8,7.449a14.329,14.329,0,0,0-24.177-2.15L126.888,100.29a1.934,1.934,0,0,0-3.087,0L87.365,148.584a1.934,1.934,0,0,0,1.544,3.1h72.872Zm-36.436-47.017L157.9,147.815H92.788Zm33.824,15.627L150.434,131.5l-10.268-13.61a10.487,10.487,0,0,1,19,2.4Zm3.576,27.524-9.9-13.119,16.377-21.02,26.6,34.139Z" transform="translate(-86.976 -99.521)"/></svg>