<svg xmlns="http://www.w3.org/2000/svg" width="62.905" height="62.904" viewBox="0 0 62.905 62.904"><defs><style>.a{fill:#fff;}</style></defs><path class="a" d="M68.834,29.522a31.246,31.246,0,0,0-22.241-9.213h0a31.452,31.452,0,1,0,22.241,9.213Zm2.054,35.67H61.681A41.44,41.44,0,0,0,63.831,53.6H74.3A27.568,27.568,0,0,1,70.888,65.192Zm-24.3,14.064a26.1,26.1,0,0,1-9.517-10.377H56.11A26.12,26.12,0,0,1,46.592,79.256ZM35.41,65.192A37.423,37.423,0,0,1,33.042,53.6h27.1a37.489,37.489,0,0,1-2.367,11.587ZM18.889,53.6H29.353A41.359,41.359,0,0,0,31.5,65.192H22.3A27.535,27.535,0,0,1,18.889,53.6ZM22.3,38.33H31.5a41.359,41.359,0,0,0-2.15,11.587H18.889A27.535,27.535,0,0,1,22.3,38.33Zm24.3-14.062A26.09,26.09,0,0,1,56.11,34.646H37.075A26.074,26.074,0,0,1,46.592,24.268ZM57.775,38.33a37.5,37.5,0,0,1,2.367,11.587h-27.1A37.5,37.5,0,0,1,35.41,38.33ZM74.3,49.918H63.831a41.441,41.441,0,0,0-2.15-11.587h9.206A27.568,27.568,0,0,1,74.3,49.918ZM60.206,34.646a32.648,32.648,0,0,0-6.88-9.824,27.838,27.838,0,0,1,15.117,9.824ZM39.859,24.822a32.648,32.648,0,0,0-6.88,9.824H24.742A27.838,27.838,0,0,1,39.859,24.822Zm-6.88,44.057a32.637,32.637,0,0,0,6.88,9.822,27.847,27.847,0,0,1-15.117-9.822ZM53.326,78.7a32.637,32.637,0,0,0,6.88-9.822h8.236A27.847,27.847,0,0,1,53.326,78.7Z" transform="translate(-15.14 -20.309)"/></svg>