<svg xmlns="http://www.w3.org/2000/svg" width="40.654" height="27.103" viewBox="0 0 40.654 27.103"><defs><style>.a{fill:#512f84;}</style></defs><g transform="translate(-1145 -1092.255)"><path class="a" d="M242.593,516.016a.847.847,0,0,0,.847-.847v-3.388a.847.847,0,0,0-1.694,0v3.388A.847.847,0,0,0,242.593,516.016Z" transform="translate(922.544 583.862)"/><path class="a" d="M227.368,527.144v0a.847.847,0,0,0,.388,1.133h0l7,3.433a3.438,3.438,0,1,0,.656-1.565l-6.913-3.388A.848.848,0,0,0,227.368,527.144Zm11.527,3.541a1.69,1.69,0,1,1-2.475,1.621,1.672,1.672,0,0,1,.067-.6c.014-.023.037-.038.048-.063a.844.844,0,0,0,.074-.243A1.694,1.694,0,0,1,238.9,530.685Z" transform="matrix(-0.545, 0.839, -0.839, -0.545, 1740.395, 1202.682)"/><path class="a" d="M261.647,536.657a.846.846,0,0,0,.846.846h3.388a.847.847,0,0,0,0-1.694h-3.388A.847.847,0,0,0,261.647,536.657Z" transform="translate(916.195 575.925)"/><path class="a" d="M221.1,535.81h-3.388a.847.847,0,1,0,0,1.694H221.1a.847.847,0,1,0,0-1.694Z" transform="translate(930.481 575.925)"/><path class="a" d="M231.137,514.96a.847.847,0,0,0-1.459.861l1.44,2.445a.847.847,0,1,0,1.459-.861Z" transform="translate(926.432 582.71)"/><path class="a" d="M259.29,525.944a.847.847,0,0,0,1.154.321l2.5-1.411a.847.847,0,0,0-.833-1.476l-2.5,1.411A.847.847,0,0,0,259.29,525.944Z" transform="translate(916.982 579.926)"/><path class="a" d="M224.4,524.789l-2.5-1.411a.847.847,0,0,0-.833,1.476l2.5,1.411a.847.847,0,0,0,.832-1.476Z" transform="translate(929.277 579.926)"/><path class="a" d="M254.531,514.662l0,0a.847.847,0,0,0-1.16.3h0l-1.44,2.445a.848.848,0,0,0,1.461.863l1.44-2.445A.847.847,0,0,0,254.531,514.662Z" transform="translate(919.333 582.711)"/><path class="a" d="M247.8,512.991A20.414,20.414,0,0,0,213.139,527.5v4.544a2.277,2.277,0,0,0,2.287,2.259h36.08a2.277,2.277,0,0,0,2.287-2.259v-4.94A19.566,19.566,0,0,0,247.8,512.991Zm4.3,19.056a.581.581,0,0,1-.593.565h-36.08a.581.581,0,0,1-.593-.565V527.5a18.72,18.72,0,0,1,31.783-13.3,17.887,17.887,0,0,1,5.483,12.9v4.942Z" transform="translate(931.861 585.053)"/></g></svg>