<svg xmlns="http://www.w3.org/2000/svg" width="32.703" height="21.802" viewBox="0 0 32.703 21.802"><defs><style>.a{fill:#fff;}</style></defs><path class="a" d="M1184.769,236.11a.681.681,0,0,0,.681-.681V232.7a.681.681,0,1,0-1.362,0v2.725A.682.682,0,0,0,1184.769,236.11Z" transform="translate(-1168.417 -229.978)"/><path class="a" d="M1191.423,247.936v0a.681.681,0,0,0-.951-.156h0l-5.1,3.658a2.765,2.765,0,1,0,.86,1.06l5.031-3.611A.682.682,0,0,0,1191.423,247.936Zm-6.895,6.823a1.36,1.36,0,1,1-.208-2.371,1.348,1.348,0,0,1,.4.275.492.492,0,0,0,.026.059.681.681,0,0,0,.144.145A1.363,1.363,0,0,1,1184.529,254.759Z" transform="translate(-1167.001 -237.045)"/><path class="a" d="M1203.988,257.579a.681.681,0,0,0,.681.681h2.726a.681.681,0,0,0,0-1.363h-2.726A.681.681,0,0,0,1203.988,257.579Z" transform="translate(-1177.417 -241.228)"/><path class="a" d="M1162.618,256.9h-2.725a.681.681,0,1,0,0,1.363h2.725a.681.681,0,0,0,0-1.363Z" transform="translate(-1157.167 -241.228)"/><path class="a" d="M1173.17,235.966a.681.681,0,0,0-1.174.692l1.158,1.967a.681.681,0,1,0,1.174-.692Z" transform="translate(-1162.906 -231.61)"/><path class="a" d="M1201.609,246.509a.681.681,0,0,0,.928.259l2.01-1.135a.681.681,0,0,0-.67-1.187l-2.01,1.136A.681.681,0,0,0,1201.609,246.509Z" transform="translate(-1176.301 -235.556)"/><path class="a" d="M1166.009,245.579l-2.01-1.135a.681.681,0,0,0-.67,1.187l2.011,1.135a.681.681,0,0,0,.669-1.187Z" transform="translate(-1158.873 -235.556)"/><path class="a" d="M1196.339,235.727l0,0a.682.682,0,0,0-.933.24h0l-1.158,1.966a.682.682,0,0,0,1.175.695l1.158-1.967A.68.68,0,0,0,1196.339,235.727Z" transform="translate(-1172.968 -231.61)"/><path class="a" d="M1183.359,232.947a16.421,16.421,0,0,0-27.88,11.673v3.655a1.831,1.831,0,0,0,1.839,1.817h29.023a1.832,1.832,0,0,0,1.84-1.817V244.3A15.739,15.739,0,0,0,1183.359,232.947Zm3.46,15.329a.467.467,0,0,1-.477.455h-29.023a.467.467,0,0,1-.477-.455V244.62a15.059,15.059,0,0,1,25.567-10.7,14.389,14.389,0,0,1,4.411,10.378v3.975Z" transform="translate(-1155.48 -228.29)"/></svg>