<svg xmlns="http://www.w3.org/2000/svg" xmlns:xlink="http://www.w3.org/1999/xlink" width="219" height="72" viewBox="0 0 219 72"><defs><style>.a{fill:#f4f4f5;}.b{clip-path:url(#a);}.c{fill:#fff;}</style><clipPath id="a"><rect class="a" width="219" height="72" transform="translate(6.647 1803.005)"/></clipPath></defs><g class="b" transform="translate(-6.647 -1803.005)"><g transform="translate(-6.679 1808.085)"><g transform="translate(18 0)"><path class="c" d="M159.193,319.272V295.3h1.617a6.092,6.092,0,0,0,6.06-5.4l1.125-9.95h-22.94l1.125,9.95a6.092,6.092,0,0,0,6.06,5.4H154.1v23.968" transform="translate(-141.453 -259.996)"/><path class="c" d="M140.124,109.523h-4.383v-7.255a2.547,2.547,0,0,0-5.094,0v7.255h-6.1v-7.255a2.547,2.547,0,0,0-5.094,0v7.255h-4.383a2.542,2.542,0,1,0,0,5.084h25.05a2.542,2.542,0,1,0,0-5.084Z" transform="translate(-112.527 -99.725)"/></g><g transform="translate(77.326 0.288)"><g transform="translate(0 8.651)"><path class="c" d="M617.988,180.612a2.354,2.354,0,0,0-1.682,4.4,21.883,21.883,0,1,1-15.63,0,2.354,2.354,0,0,0-1.682-4.4,26.6,26.6,0,1,0,18.995,0Z" transform="translate(-581.9 -180.455)"/></g><g transform="translate(24.237)"><path class="c" d="M803.135,102.328a2.351,2.351,0,0,0-2.352,2.352v23.047a2.352,2.352,0,0,0,4.7,0V104.679A2.348,2.348,0,0,0,803.135,102.328Z" transform="translate(-800.783 -102.328)"/></g></g><path class="c" d="M1306.993,166.463l-.047-.07-.07-.056a27.34,27.34,0,0,0-18.669-8.593l-.888-.028c-.288-.009-.586-.009-.86,0l-.888.023,0,0a27.355,27.355,0,0,0-18.674,8.6l-.121.1-.033.07a27.452,27.452,0,0,0-.5,36.888l.018.023a.988.988,0,0,0,.158.172,27.27,27.27,0,0,0,19.157,9.119l.971.033c.116,0,.232,0,.353,0,.14,0,.279,0,.427-.009l.888-.023,0,0a27.63,27.63,0,0,0,19.139-9.1l.228-.237.009-.028a27.438,27.438,0,0,0-.6-36.879Zm-12.358,32.607a30.885,30.885,0,0,1-5.9,8.189v-9.1A31.087,31.087,0,0,1,1294.635,199.071Zm-5.9-4.61v-7.38h9.076a30.911,30.911,0,0,1-1.724,8.556A34.423,34.423,0,0,0,1288.732,194.46Zm0-23.075V163.2a30.888,30.888,0,0,1,5.484,7.376A31.043,31.043,0,0,1,1288.732,171.385Zm9.081-1.919a34.643,34.643,0,0,0-4.991-7.315,23.612,23.612,0,0,1,9.672,5.094A30.548,30.548,0,0,1,1297.814,169.466Zm0,13.92h-9.081v-8.3a34.715,34.715,0,0,0,7.05-1.1A30.844,30.844,0,0,1,1297.809,183.385Zm7.348-13.427a23.846,23.846,0,0,1,5.479,13.427h-9.128a34.719,34.719,0,0,0-2.2-10.536A34.885,34.885,0,0,0,1305.157,169.958Zm-12.33,38.343a34.4,34.4,0,0,0,5.354-8.082,30.93,30.93,0,0,1,4.922,2.449A24.013,24.013,0,0,1,1292.827,208.3Zm17.81-21.225a23.516,23.516,0,0,1-4.991,12.823,34.751,34.751,0,0,0-6.056-3.1,34.784,34.784,0,0,0,1.919-9.727Zm-38.375,0a34.775,34.775,0,0,0,1.919,9.727,34.752,34.752,0,0,0-6.056,3.1,23.514,23.514,0,0,1-4.991-12.823Zm12.776,11.08v9.1a30.772,30.772,0,0,1-5.9-8.189A31.35,31.35,0,0,1,1285.037,198.155Zm0-11.08v7.38a34.805,34.805,0,0,0-7.357,1.176,31.141,31.141,0,0,1-1.724-8.556Zm-13.766-19.827a23.611,23.611,0,0,1,9.672-5.094,34.406,34.406,0,0,0-4.991,7.315A31.658,31.658,0,0,1,1271.271,167.249Zm13.766,7.836v8.3h-9.081a31.059,31.059,0,0,1,2.026-9.393A35.185,35.185,0,0,0,1285.037,175.085Zm-5.484-4.513a30.924,30.924,0,0,1,5.484-7.376v8.189A30.985,30.985,0,0,1,1279.553,170.572Zm-5.094,2.277a34.732,34.732,0,0,0-2.2,10.536h-9.128a23.846,23.846,0,0,1,5.479-13.427A34.755,34.755,0,0,0,1274.459,172.849Zm1.129,27.37a34.4,34.4,0,0,0,5.354,8.082,23.986,23.986,0,0,1-10.276-5.633A30.735,30.735,0,0,1,1275.589,200.219Z" transform="translate(-1093.427 -151.289)"/></g></g></svg>