<svg xmlns="http://www.w3.org/2000/svg" width="141.377" height="27.394" viewBox="0 0 141.377 27.394"><defs><style>.a,.b{fill:#fff;}.b{fill-rule:evenodd;}</style></defs><g transform="translate(-109.482 -4.533)"><g transform="translate(119.722 4.533)"><g transform="translate(67.979)"><path class="a" d="M199.452,28.486a.676.676,0,0,1-.463-.134.629.629,0,0,1-.146-.475V11.63a.629.629,0,0,1,.146-.475.671.671,0,0,1,.463-.134H201.2a.63.63,0,0,1,.682.536l.171.633a5.4,5.4,0,0,1,1.766-1.12,5.63,5.63,0,0,1,2.107-.414,4.526,4.526,0,0,1,3.74,1.73,7.3,7.3,0,0,1,1.377,4.677,8.51,8.51,0,0,1-.682,3.532,5.524,5.524,0,0,1-1.851,2.326,4.561,4.561,0,0,1-2.679.816,5.709,5.709,0,0,1-1.9-.317,4.571,4.571,0,0,1-1.534-.875v5.334a.5.5,0,0,1-.613.613Zm5.334-7.43a2.28,2.28,0,0,0,2.013-.925,5.2,5.2,0,0,0,.646-2.923,5.334,5.334,0,0,0-.634-2.948,2.278,2.278,0,0,0-2.022-.925,4.64,4.64,0,0,0-2.387.657V20.4A4.479,4.479,0,0,0,204.786,21.056Z" transform="translate(-198.839 -5.295)"/><path class="a" d="M216.116,23.5a.525.525,0,0,1-.613-.42.508.508,0,0,1,0-.193V11.664a.629.629,0,0,1,.146-.475.671.671,0,0,1,.463-.134h1.751a.63.63,0,0,1,.682.536l.317,1.313a6.978,6.978,0,0,1,1.838-1.522,3.934,3.934,0,0,1,1.838-.451h.348a.714.714,0,0,1,.488.134.623.623,0,0,1,.145.474v2.047a.671.671,0,0,1-.134.463.626.626,0,0,1-.475.146c-.114,0-.26-.008-.438-.025s-.405-.025-.682-.024a7.287,7.287,0,0,0-1.364.158,6.746,6.746,0,0,0-1.365.4v8.185a.671.671,0,0,1-.134.463.63.63,0,0,1-.475.146Z" transform="translate(-200.915 -5.33)"/><path class="a" d="M228.368,8.333a2.116,2.116,0,0,1-1.488-.511,1.787,1.787,0,0,1-.56-1.388,1.784,1.784,0,0,1,.56-1.389,2.414,2.414,0,0,1,2.972,0,1.788,1.788,0,0,1,.56,1.388,1.788,1.788,0,0,1-.56,1.388A2.118,2.118,0,0,1,228.368,8.333ZM227.2,22.705a.525.525,0,0,1-.613-.42.508.508,0,0,1,0-.193V10.867a.626.626,0,0,1,.146-.475.671.671,0,0,1,.463-.134h2.339a.664.664,0,0,1,.474.134.667.667,0,0,1,.135.475V22.1a.672.672,0,0,1-.135.463.624.624,0,0,1-.474.146Z" transform="translate(-202.264 -4.533)"/><path class="a" d="M234.745,23.467a.525.525,0,0,1-.613-.42.508.508,0,0,1,0-.193V11.629a.63.63,0,0,1,.146-.475.671.671,0,0,1,.463-.134h1.751a.629.629,0,0,1,.682.536l.2.657a10.5,10.5,0,0,1,2.327-1.205,6.563,6.563,0,0,1,2.131-.35,3.275,3.275,0,0,1,3.094,1.559,10,10,0,0,1,2.339-1.194,7.114,7.114,0,0,1,2.265-.366,3.546,3.546,0,0,1,2.643.951,3.619,3.619,0,0,1,.938,2.655v8.6a.671.671,0,0,1-.134.463.626.626,0,0,1-.475.146H250.16a.525.525,0,0,1-.613-.42.51.51,0,0,1,0-.193v-7.82q0-1.656-1.488-1.656a6.18,6.18,0,0,0-2.655.633v8.841a.671.671,0,0,1-.134.463.626.626,0,0,1-.475.146h-2.339a.525.525,0,0,1-.613-.42.508.508,0,0,1,0-.193V15.038q0-1.656-1.488-1.656a5.934,5.934,0,0,0-2.679.657v8.818a.671.671,0,0,1-.134.463.626.626,0,0,1-.475.146Z" transform="translate(-203.237 -5.294)"/><path class="a" d="M264.58,23.832a6.2,6.2,0,0,1-4.639-1.656,6.513,6.513,0,0,1-1.619-4.751,7.066,7.066,0,0,1,1.656-4.97,5.943,5.943,0,0,1,4.6-1.8,5.272,5.272,0,0,1,3.544,1.1,3.658,3.658,0,0,1,1.279,2.923,3.131,3.131,0,0,1-1.376,2.765,7.21,7.21,0,0,1-4.056.938,9.6,9.6,0,0,1-2.412-.268,3.306,3.306,0,0,0,.987,2.339,3.885,3.885,0,0,0,2.546.706,10.059,10.059,0,0,0,1.328-.088,16.631,16.631,0,0,0,1.79-.377,1.051,1.051,0,0,1,.146-.037.807.807,0,0,1,.122-.012q.414,0,.414.56v1.121a1.009,1.009,0,0,1-.109.548.9.9,0,0,1-.426.28A10.454,10.454,0,0,1,264.58,23.832Zm-.8-7.649a3.307,3.307,0,0,0,1.8-.377,1.3,1.3,0,0,0,.56-1.157q0-1.535-1.827-1.534-2.339,0-2.7,2.875A11.052,11.052,0,0,0,263.776,16.183Z" transform="translate(-206.251 -5.294)"/></g><g transform="translate(0 18.708)"><path class="b" d="M156.042,29.925A27.657,27.657,0,0,1,140.426,34.7a28.261,28.261,0,0,1-19.076-7.277c-.395-.357-.042-.845.432-.568a38.389,38.389,0,0,0,19.083,5.064,37.967,37.967,0,0,0,14.558-2.976c.713-.3,1.313.47.613.987Z" transform="translate(-121.18 -26.013)"/><path class="b" d="M162.261,27.811c-.54-.692-3.57-.327-4.931-.165-.412.049-.476-.311-.1-.572,2.417-1.7,6.378-1.207,6.837-.639s-.122,4.544-2.386,6.439c-.35.291-.68.136-.525-.249.509-1.273,1.651-4.122,1.11-4.814Z" transform="translate(-125.643 -25.904)"/></g></g><g transform="translate(109.482 10.02)"><path class="b" d="M157.43,13.246V11.6a.407.407,0,0,1,.4-.418h7.415a.412.412,0,0,1,.426.4v1.434a2.334,2.334,0,0,1-.557,1.039l-3.831,5.467a8.2,8.2,0,0,1,4.217.906.753.753,0,0,1,.392.643v1.76c0,.242-.263.525-.544.376a8.512,8.512,0,0,0-7.812.015c-.257.137-.525-.14-.525-.383V21.162a1.988,1.988,0,0,1,.275-1.138l4.437-6.366h-3.864a.412.412,0,0,1-.427-.4v-.017Z" transform="translate(-115.406 -10.848)"/><path class="b" d="M173.472,13.291c-1.659,0-1.763,2.258-1.763,3.668s-.021,4.421,1.743,4.421c1.743,0,1.826-2.429,1.826-3.91a10.663,10.663,0,0,0-.336-3.064,1.407,1.407,0,0,0-1.47-1.118Zm-.02-2.356c3.338,0,5.144,2.867,5.144,6.51,0,3.522-1.994,6.317-5.144,6.317-3.276,0-5.06-2.868-5.06-6.438,0-3.6,1.806-6.39,5.06-6.39Z" transform="translate(-116.825 -10.817)"/><path class="b" d="M152.079,23.473a.48.48,0,0,1-.531.053,5.853,5.853,0,0,1-1.289-1.5,4.46,4.46,0,0,1-3.709,1.632,3.191,3.191,0,0,1-3.376-3,3.127,3.127,0,0,1,.01-.5,3.819,3.819,0,0,1,2.4-3.676,15.562,15.562,0,0,1,4.229-.779,3.978,3.978,0,0,0-.273-1.926,1.577,1.577,0,0,0-1.262-.585,1.712,1.712,0,0,0-1.8,1.324c-.046.249-.23.46-.425.438l-2.154-.234a.4.4,0,0,1-.341-.446l0-.025c.5-2.644,2.889-3.444,5.03-3.444a5.1,5.1,0,0,1,3.388,1.12c1.094,1.022.989,2.386.989,3.872v3.5a3.068,3.068,0,0,0,.848,2.084.425.425,0,0,1-.007.6c-.46.385-1.731,1.488-1.731,1.488Zm-2.268-5.484a4.41,4.41,0,0,1-.421,2.386,1.827,1.827,0,0,1-1.557,1.022c-.862,0-1.367-.657-1.367-1.632,0-1.916,1.719-2.264,3.346-2.264Z" transform="translate(-113.681 -10.801)"/><path class="b" d="M118.393,23.473a.48.48,0,0,1-.531.053,5.839,5.839,0,0,1-1.289-1.5,4.465,4.465,0,0,1-3.708,1.632,3.191,3.191,0,0,1-3.376-3,3.128,3.128,0,0,1,.01-.5,3.819,3.819,0,0,1,2.4-3.676,15.562,15.562,0,0,1,4.229-.779,3.978,3.978,0,0,0-.273-1.926,1.577,1.577,0,0,0-1.262-.585,1.713,1.713,0,0,0-1.8,1.325c-.046.249-.23.46-.425.438l-2.153-.233a.4.4,0,0,1-.341-.446l0-.025c.5-2.644,2.889-3.444,5.03-3.444a5.1,5.1,0,0,1,3.388,1.12c1.094,1.022.989,2.386.989,3.872v3.5a3.068,3.068,0,0,0,.848,2.084.425.425,0,0,1-.007.6c-.46.385-1.731,1.488-1.731,1.488Zm-2.267-5.484a4.418,4.418,0,0,1-.421,2.386,1.827,1.827,0,0,1-1.557,1.022c-.862,0-1.367-.657-1.367-1.632,0-1.916,1.719-2.264,3.346-2.264Z" transform="translate(-109.482 -10.801)"/><path class="b" d="M126.738,16.984c0-1.337-.063-3.182,1.554-3.182,1.6,0,1.386,1.894,1.386,3.182V23.1a.423.423,0,0,0,.4.415h2.246a.424.424,0,0,0,.438-.41V16.984a7,7,0,0,1,.21-2.211,1.493,1.493,0,0,1,1.345-.947,1.173,1.173,0,0,1,1.323,1,14.859,14.859,0,0,1,.063,2.162V23.1a.422.422,0,0,0,.4.415h2.246a.425.425,0,0,0,.438-.411V15.819c0-1.24.146-2.648-.567-3.62a3.327,3.327,0,0,0-5.711.875,3.089,3.089,0,0,0-5.878,0H126.6V11.6a.42.42,0,0,0-.42-.42h-2.1a.42.42,0,0,0-.42.42V23.1a.42.42,0,0,0,.42.42h2.245a.42.42,0,0,0,.42-.42V16.984Z" transform="translate(-111.249 -10.818)"/><path class="b" d="M185.057,23.1a.42.42,0,0,1-.42.42H182.39a.42.42,0,0,1-.42-.42V11.6a.42.42,0,0,1,.42-.42h2.075a.415.415,0,0,1,.42.328v1.76h.043c.63-1.576,1.511-2.332,3.064-2.332a2.95,2.95,0,0,1,2.626,1.36,7.34,7.34,0,0,1,.588,3.6v7.265a.427.427,0,0,1-.431.363H188.52a.424.424,0,0,1-.4-.363V16.18c0-2.334-.895-2.4-1.41-2.4a1.539,1.539,0,0,0-1.295.906,5.223,5.223,0,0,0-.365,2.2V23.1Z" transform="translate(-118.517 -10.817)"/></g></g></svg>