<svg xmlns="http://www.w3.org/2000/svg" width="80" height="80" viewBox="0 0 80 80"><defs><style>.a{fill:#fff;}</style></defs><ellipse class="a" cx="3.836" cy="3.836" rx="3.836" ry="3.836" transform="translate(17.808 42.877)"/><path class="a" d="M52.726,32.9H24.644a1.644,1.644,0,0,0,0,3.288H52.726a1.666,1.666,0,0,0,1.644-1.644A1.583,1.583,0,0,0,52.726,32.9Z" transform="translate(8.507 12.168)"/><path class="a" d="M40,0A40,40,0,1,0,80,40,40.047,40.047,0,0,0,40,0ZM60.822,56.3H21.507a9.589,9.589,0,0,1,0-19.178h2.466l.137-3.973.959-.274V20.959a3.244,3.244,0,0,1-1.781-2.74,3.151,3.151,0,1,1,4.658,2.74V32.877l.822.274.137,3.973H60.822a9.589,9.589,0,1,1,0,19.178Z"/></svg>