<svg xmlns="http://www.w3.org/2000/svg" width="80" height="80" viewBox="0 0 80 80"><defs><style>.a{fill:#fff;}</style></defs><path class="a" d="M80,40.138A40,40,0,1,0,35.786,80V66.851H28.877v-9A13.49,13.49,0,0,1,17.824,44.706V31.972h10.5V16.332A2.626,2.626,0,0,1,30.95,13.7h.415a2.626,2.626,0,0,1,2.625,2.63v15.64H46.978V16.332A2.626,2.626,0,0,1,49.6,13.7h.415a2.626,2.626,0,0,1,2.625,2.63v15.64h9.81V44.706A13.378,13.378,0,0,1,51.4,57.855v9H44.491V80A40.03,40.03,0,0,0,80,40.138Z" transform="translate(0 0)"/></svg>