<svg xmlns="http://www.w3.org/2000/svg" width="80" height="80" viewBox="0 0 80 80"><defs><style>.a{fill:#fff;}.b{fill:#338b4e;}</style></defs><circle class="a" cx="40" cy="40" r="40"/><g transform="translate(13.793 26.207)"><g transform="translate(0)"><path class="b" d="M23.448,4a13.022,13.022,0,0,1,4,9.655,13.887,13.887,0,0,1-4,9.793,13.022,13.022,0,0,1-9.655,4,13.887,13.887,0,0,1-9.793-4,12.812,12.812,0,0,1-4-9.655A13.337,13.337,0,0,1,4,4.138,13.24,13.24,0,0,1,13.793,0a13.337,13.337,0,0,1,9.655,4M8,8a7.721,7.721,0,0,0-2.483,5.793A7.513,7.513,0,0,0,8,19.586a7.513,7.513,0,0,0,5.793,2.483,7.721,7.721,0,0,0,5.793-2.483,7.94,7.94,0,0,0,2.483-5.793A7.721,7.721,0,0,0,19.586,8a7.94,7.94,0,0,0-5.793-2.483A7.513,7.513,0,0,0,8,8" transform="translate(0)"/><path class="b" d="M21.2,7.448V0L37.752,15.034V.552h5.517V27.586Z" transform="translate(8.041)"/><path class="b" d="M27.621,18.51a3.31,3.31,0,1,1-3.31-3.31,3.268,3.268,0,0,1,3.31,3.31" transform="translate(7.966 5.766)"/></g></g></svg>