<svg xmlns="http://www.w3.org/2000/svg" width="64.63" height="65.372" viewBox="0 0 64.63 65.372"><defs><style>.a{fill:#fff;}</style></defs><path class="a" d="M662.994,101.116l-1.937-.692v-.765a.666.666,0,0,0-.395-.611h0a.67.67,0,0,0-.946.611v.289l-1.875-.669v-.926a.671.671,0,0,0-1.341,0V98.8l-1.948-.692V97a.67.67,0,0,0-1.341,0v.631l-1.876-.669V95.741a.67.67,0,0,0-1.341,0v.742l-3.833-1.367-3.12-1.852-.009-8.524,10.741-6.094,3.9,2.153,2.436,2.261,0,.944a.672.672,0,0,0,1.294.254l1.128,1.049,0,1.043a.678.678,0,0,0,.395.613.67.67,0,0,0,.923-.435l1.177,1.093,0,.906a.67.67,0,0,0,1.279.28l1.189,1.1V90.7a.669.669,0,0,0,1.239.356l1.139,1.06V95.4l3.43,1.992a32.705,32.705,0,0,0-37.64-48.236v25.2L613.444,87.3a32.684,32.684,0,0,0,56.1,15.094l-4.353-2.544ZM644.047,77.287l3.178,1.785-5.5,3.12-3.435-1.849Zm-1.288,15.24L634.375,87.6V80.077l1.113-.532,6.675,3.713,7.5-4.256-5.6-3.12V74.719l1.42-.616,8,4.391-10.718,6.1Z" transform="translate(-613.444 -47.686)"/><path class="a" d="M626.242,52.314v3.3l-9.277,5.376v-3.31l-1.618.935v9.143l2.564-1.6v2.129l1.258-.822v1.5l4.741-2.709.1-1.6,1.064-.58.048-2.032,2.661-1.4-.048-9.191Z" transform="translate(-609.79 -40.447)"/></svg>