<?xml version="1.0" encoding="utf-8"?>
<!-- Generator: Adobe Illustrator 25.0.1, SVG Export Plug-In . SVG Version: 6.00 Build 0)  -->
<svg version="1.1" id="Capa_1" xmlns="http://www.w3.org/2000/svg" xmlns:xlink="http://www.w3.org/1999/xlink" x="0px" y="0px"
	 viewBox="0 0 214 32" style="enable-background:new 0 0 214 32;" xml:space="preserve">
<style type="text/css">
	.st0{opacity:0.898;fill:#FFFFFF;enable-background:new    ;}
	.st1{enable-background:new    ;}
	.st2{fill:#008542;}
</style>
<g transform="translate(0.073 -0.132)">
	<rect x="-0.1" y="0.1" class="st0" width="214" height="32"/>
	<g class="st1">
		<path class="st2" d="M48.4,20.6h-1.7v-2.7h2.2l0.7-3.6h-2.9v-2.7h3.5l1-4.8h2.7l-1,4.8h2.7l0.9-4.8h2.8l-1,4.8h1.7v2.7h-2.2
			l-0.7,3.6h3v2.7h-3.5l-1,4.8h-2.7l0.9-4.8h-2.7l-1,4.8h-2.8L48.4,20.6z M52.4,14.3l-0.7,3.6h2.7l0.7-3.6H52.4z"/>
		<path class="st2" d="M62.5,25.1V7.2h5.8c2.2,0,3.6,0.1,4.3,0.3c1,0.3,1.9,0.9,2.6,1.8c0.7,0.9,1,2.1,1,3.5c0,1.1-0.2,2-0.6,2.8
			c-0.4,0.7-0.9,1.3-1.5,1.8c-0.6,0.4-1.2,0.7-1.9,0.8c-0.9,0.2-2.1,0.3-3.7,0.3h-2.4v6.8H62.5z M66.1,10.2v5.1h2
			c1.4,0,2.4-0.1,2.9-0.3c0.5-0.2,0.9-0.5,1.1-0.9c0.3-0.4,0.4-0.9,0.4-1.4c0-0.7-0.2-1.2-0.6-1.6c-0.4-0.4-0.9-0.7-1.5-0.8
			c-0.4-0.1-1.3-0.1-2.6-0.1H66.1z"/>
		<path class="st2" d="M78.6,18.4c0-1.1,0.3-2.2,0.8-3.3c0.6-1.1,1.4-1.9,2.4-2.4c1-0.6,2.2-0.8,3.4-0.8c2,0,3.6,0.6,4.8,1.9
			c1.3,1.3,1.9,2.9,1.9,4.8c0,2-0.6,3.6-1.9,4.9c-1.3,1.3-2.9,1.9-4.8,1.9c-1.2,0-2.3-0.3-3.4-0.8c-1.1-0.5-1.9-1.3-2.5-2.4
			C78.9,21.2,78.6,19.9,78.6,18.4z M82.1,18.6c0,1.3,0.3,2.3,0.9,3s1.4,1,2.3,1c0.9,0,1.6-0.3,2.3-1c0.6-0.7,0.9-1.7,0.9-3
			c0-1.3-0.3-2.2-0.9-2.9c-0.6-0.7-1.4-1-2.3-1c-0.9,0-1.6,0.3-2.3,1S82.1,17.3,82.1,18.6z"/>
		<path class="st2" d="M106.7,25.1h-3.4v-6.6c0-1.4-0.1-2.3-0.2-2.7s-0.4-0.7-0.7-1c-0.3-0.2-0.7-0.3-1.2-0.3
			c-0.6,0-1.1,0.2-1.6,0.5c-0.5,0.3-0.8,0.8-1,1.3c-0.2,0.5-0.3,1.5-0.3,3v5.9h-3.4v-13h3.2V14c1.1-1.5,2.6-2.2,4.3-2.2
			c0.8,0,1.4,0.1,2.1,0.4c0.6,0.3,1.1,0.6,1.4,1c0.3,0.4,0.5,0.9,0.7,1.4c0.1,0.5,0.2,1.3,0.2,2.3V25.1z"/>
		<path class="st2" d="M116.4,12.1v2.7H114v5.2c0,1.1,0,1.7,0.1,1.8c0,0.2,0.1,0.3,0.3,0.4c0.2,0.1,0.4,0.2,0.6,0.2
			c0.3,0,0.8-0.1,1.4-0.3l0.3,2.7c-0.8,0.3-1.7,0.5-2.7,0.5c-0.6,0-1.2-0.1-1.7-0.3c-0.5-0.2-0.9-0.5-1.1-0.8
			c-0.2-0.3-0.4-0.8-0.5-1.3c-0.1-0.4-0.1-1.2-0.1-2.4v-5.7H109v-2.7h1.6V9.5l3.4-2v4.6H116.4z"/>
		<path class="st2" d="M126.5,21l3.4,0.6c-0.4,1.3-1.1,2.2-2.1,2.9c-0.9,0.7-2.1,1-3.6,1c-2.3,0-3.9-0.7-5-2.2
			c-0.9-1.2-1.3-2.7-1.3-4.5c0-2.1,0.6-3.8,1.7-5s2.5-1.8,4.3-1.8c1.9,0,3.5,0.6,4.6,1.9c1.1,1.3,1.6,3.2,1.6,5.9h-8.6
			c0,1,0.3,1.8,0.8,2.4c0.5,0.6,1.2,0.8,2,0.8c0.5,0,1-0.1,1.4-0.4S126.3,21.6,126.5,21z M126.7,17.5c0-1-0.3-1.7-0.8-2.3
			c-0.5-0.5-1.1-0.8-1.8-0.8c-0.7,0-1.4,0.3-1.9,0.8s-0.7,1.3-0.7,2.2H126.7z"/>
		<path class="st2" d="M132.5,16.2c0-1.8,0.3-3.4,0.8-4.6c0.4-0.9,1-1.7,1.7-2.5c0.7-0.7,1.5-1.3,2.3-1.6c1.1-0.5,2.4-0.7,3.9-0.7
			c2.6,0,4.7,0.8,6.3,2.5c1.6,1.6,2.4,3.9,2.4,6.8c0,2.9-0.8,5.2-2.4,6.8c-1.6,1.6-3.7,2.4-6.3,2.4c-2.7,0-4.8-0.8-6.3-2.4
			C133.2,21.3,132.5,19.1,132.5,16.2z M136.2,16.1c0,2,0.5,3.6,1.4,4.6c0.9,1,2.1,1.6,3.6,1.6s2.6-0.5,3.5-1.6
			c0.9-1,1.4-2.6,1.4-4.7c0-2.1-0.5-3.6-1.3-4.6c-0.9-1-2.1-1.5-3.6-1.5s-2.7,0.5-3.6,1.5S136.2,14.1,136.2,16.1z"/>
		<path class="st2" d="M152.9,25.1V7.2h3.5l7.3,12v-12h3.4v17.9h-3.6l-7.2-11.7v11.7H152.9z"/>
	</g>
</g>
</svg>
